<svg width="430" height="430" viewBox="0 0 430 430" fill="none" xmlns="http://www.w3.org/2000/svg">
<path d="M379.011 226.834C380.731 203.983 375.416 180.127 368.295 158.894C357.76 127.28 337.189 94.8838 302.617 87.4018C282.682 83.1018 262.395 87.7114 245.298 98.513C228.863 108.902 216.058 122.326 195.839 124.924C175.397 127.555 154.422 126.497 133.876 126.497C81.0464 126.497 38.1754 181.993 48.891 239.802C59.6066 297.612 110.14 337.696 153.011 337.696C191.539 337.696 223.239 314.588 259.832 308.379C277.978 305.3 296.201 308.946 314.158 304.337C335.03 298.97 354.655 286.182 366.222 267.666C374.1 255.042 377.936 241.135 379.011 226.834Z" fill="#FFBB3B"/>
<path opacity="0.7" d="M379.011 226.834C380.731 203.983 375.416 180.127 368.295 158.894C357.76 127.28 337.189 94.8838 302.617 87.4018C282.682 83.1018 262.395 87.7114 245.298 98.513C228.863 108.902 216.058 122.326 195.839 124.924C175.397 127.555 154.422 126.497 133.876 126.497C81.0464 126.497 38.1754 181.993 48.891 239.802C59.6066 297.612 110.14 337.696 153.011 337.696C191.539 337.696 223.239 314.588 259.832 308.379C277.978 305.3 296.201 308.946 314.158 304.337C335.03 298.97 354.655 286.182 366.222 267.666C374.1 255.042 377.936 241.135 379.011 226.834Z" fill="white"/>
<path d="M372.827 218.81C372.827 218.81 372.827 214.51 366.807 208.55C360.787 202.59 356.969 199.133 356.969 199.133C356.969 199.133 353.976 208.971 359.549 214.966C363.64 219.176 368.076 223.036 372.81 226.507L372.827 218.81Z" fill="#FFBB3B"/>
<path d="M364.141 245.521C364.141 245.521 364.141 241.221 358.121 235.262C352.101 229.302 348.3 225.845 348.3 225.845C348.3 225.845 345.299 235.683 350.88 241.677C354.971 245.887 359.407 249.748 364.141 253.218V245.521Z" fill="#FFBB3B"/>
<path d="M372.449 226.094C372.449 226.094 372.905 221.846 379.492 216.522C386.08 211.199 390.268 208.206 390.268 208.206C390.268 208.206 392.203 218.302 386.045 223.686C381.533 227.441 376.714 230.813 371.64 233.765L372.449 226.094Z" fill="#FFBB3B"/>
<path d="M361.957 257.639C361.957 257.639 362.817 253.459 369.963 248.858C377.11 244.257 381.548 241.72 381.548 241.72C381.548 241.72 382.408 251.971 375.725 256.658C370.843 259.92 365.696 262.768 360.34 265.172L361.957 257.639Z" fill="#FFBB3B"/>
<path d="M363.926 292.039C363.926 292.039 363.926 287.739 369.946 281.77C375.966 275.802 379.776 272.362 379.776 272.362C379.776 272.362 382.777 282.2 377.196 288.186C373.107 292.4 368.671 296.264 363.935 299.736L363.926 292.039Z" fill="#FFBB3B"/>
<path d="M363.832 300.432C363.832 300.432 364.434 296.201 359.36 289.424C354.286 282.648 350.957 278.709 350.957 278.709C350.957 278.709 346.597 288.023 351.25 294.739C354.699 299.489 358.539 303.942 362.731 308.052L363.832 300.432Z" fill="#FFBB3B"/>
<path d="M357.923 325.312C357.923 325.312 357.923 321.012 363.943 315.052C369.963 309.093 373.782 305.635 373.782 305.635C373.782 305.635 376.775 315.474 371.202 321.468C367.11 325.679 362.674 329.543 357.941 333.018L357.923 325.312Z" fill="#FFBB3B"/>
<path d="M361.922 347.87C361.922 347.87 360.839 343.733 365.113 336.423C369.387 329.113 372.251 324.831 372.251 324.831C372.251 324.831 377.635 333.585 373.773 340.792C370.884 345.902 367.573 350.76 363.875 355.318L361.922 347.87Z" fill="#FFBB3B"/>
<path d="M373.369 217.718C373.068 222.17 372.522 226.603 371.735 230.996C369.361 243.225 363.445 251.12 361.08 262.162C358.715 273.205 365.509 287.438 363.66 301.628C361.811 315.818 356.324 323.704 357.898 333.173C359.471 342.641 367.762 368.286 367.762 368.286" stroke="#263238" stroke-linecap="round" stroke-linejoin="round"/>
<path d="M372.397 228.941L378.847 223.987" stroke="#263238" stroke-linecap="round" stroke-linejoin="round"/>
<path d="M372.698 223.239L369.989 218.431" stroke="#263238" stroke-linecap="round" stroke-linejoin="round"/>
<path d="M361.441 261.655C361.441 261.655 366.842 257.604 372.397 253.554" stroke="#263238" stroke-linecap="round" stroke-linejoin="round"/>
<path d="M364.141 253.218C364.141 253.218 359.635 244.395 354.535 238.547" stroke="#263238" stroke-linecap="round" stroke-linejoin="round"/>
<path d="M364.141 298.128C367.222 292.434 371.116 287.219 375.7 282.648" stroke="#263238" stroke-linecap="round" stroke-linejoin="round"/>
<path d="M363.092 304.13C361.453 300.27 359.494 296.553 357.235 293.019C354.088 288.367 353.632 287.765 353.632 287.765" stroke="#263238" stroke-linecap="round" stroke-linejoin="round"/>
<path d="M357.923 333.173C359.295 329.783 360.922 326.503 362.791 323.36C364.661 320.439 366.77 317.678 369.095 315.104" stroke="#263238" stroke-linecap="round" stroke-linejoin="round"/>
<path d="M363.875 355.318C363.561 352.077 364.119 348.811 365.491 345.858C367.745 341.506 370.29 335.804 371.339 333.551" stroke="#263238" stroke-linecap="round" stroke-linejoin="round"/>
<path d="M323.962 275.957C323.962 275.957 323.498 273.274 326.602 268.862C329.707 264.45 331.762 261.896 331.762 261.896C331.762 261.896 334.703 267.744 331.865 272.095C329.758 275.182 327.396 278.088 324.805 280.781L323.962 275.957Z" fill="#FFBB3B"/>
<path d="M332.313 291.764C332.313 291.764 331.848 289.08 334.953 284.669C338.057 280.257 340.113 277.703 340.113 277.703C340.113 277.703 343.054 283.551 340.216 287.911C338.107 290.994 335.745 293.896 333.155 296.588L332.313 291.764Z" fill="#FFBB3B"/>
<path d="M324.985 280.48C324.985 280.48 324.246 277.9 319.533 275.243C314.82 272.586 311.879 271.192 311.879 271.192C311.879 271.192 311.759 277.737 316.179 280.437C319.415 282.3 322.801 283.891 326.301 285.193L324.985 280.48Z" fill="#FFBB3B"/>
<path d="M334.996 299.125C334.996 299.125 333.981 296.597 329.027 294.481C324.074 292.366 320.978 291.265 320.978 291.265C320.978 291.265 321.545 297.784 326.258 300.002C329.673 301.515 333.209 302.741 336.828 303.666L334.996 299.125Z" fill="#FFBB3B"/>
<path d="M337.49 320.909C337.49 320.909 337.034 318.226 332.622 315.121C328.21 312.017 325.433 310.288 325.433 310.288C325.433 310.288 324.624 316.781 328.761 319.929C331.783 322.129 334.985 324.071 338.333 325.734L337.49 320.909Z" fill="#FFBB3B"/>
<path d="M338.47 326.164C338.47 326.164 337.61 323.584 340.078 318.768C342.547 313.952 344.181 311.139 344.181 311.139C344.181 311.139 347.922 316.506 345.737 321.227C344.091 324.579 342.167 327.787 339.984 330.816L338.47 326.164Z" fill="#FFBB3B"/>
<path d="M345.987 347.793C345.987 347.793 346.296 345.092 350.519 341.773C354.741 338.453 357.399 336.535 357.399 336.535C357.399 336.535 358.577 342.977 354.63 346.356C351.738 348.722 348.655 350.842 345.41 352.695L345.987 347.793Z" fill="#FFBB3B"/>
<path d="M344.86 341.119C344.86 341.119 344.396 338.436 339.992 335.331C335.589 332.227 332.82 330.498 332.82 330.498C332.82 330.498 332.012 336.991 336.148 340.147C339.172 342.344 342.374 344.286 345.72 345.952L344.86 341.119Z" fill="#FFBB3B"/>
<path d="M344.86 355.705C344.86 355.705 345.084 352.987 341.609 348.868C338.135 344.748 335.882 342.375 335.882 342.375C335.882 342.375 333.448 348.446 336.656 352.548C339.007 355.437 341.596 358.124 344.396 360.581L344.86 355.705Z" fill="#FFBB3B"/>
<path d="M323.506 275.32C324.179 278.081 325.003 280.803 325.974 283.473C328.787 290.886 333.353 295.195 336.036 301.86C338.72 308.525 336.036 318.2 338.685 326.895C341.334 335.589 345.72 339.941 345.72 346.047C345.72 352.153 343.346 369.138 343.346 369.138" stroke="#263238" stroke-linecap="round" stroke-linejoin="round"/>
<path d="M325.338 282.252L320.754 279.853" stroke="#263238" stroke-linecap="round" stroke-linejoin="round"/>
<path d="M324.53 278.709L325.699 275.406" stroke="#263238" stroke-linecap="round" stroke-linejoin="round"/>
<path d="M335.753 301.585C335.753 301.585 331.926 299.633 328.013 297.689" stroke="#263238" stroke-linecap="round" stroke-linejoin="round"/>
<path d="M333.147 296.588C334.275 293.045 335.759 289.625 337.576 286.38" stroke="#263238" stroke-linecap="round" stroke-linejoin="round"/>
<path d="M338.023 324.745C335.471 321.515 332.464 318.674 329.096 316.308" stroke="#263238" stroke-linecap="round" stroke-linejoin="round"/>
<path d="M339.33 328.391C339.942 325.796 340.768 323.256 341.798 320.797C343.269 317.538 343.518 317.108 343.518 317.108" stroke="#263238" stroke-linecap="round" stroke-linejoin="round"/>
<path d="M345.514 350.682C347.005 348.834 348.657 347.122 350.45 345.565C351.591 344.725 352.661 343.793 353.649 342.779" stroke="#263238" stroke-linecap="round" stroke-linejoin="round"/>
<path d="M345.72 346.047C344.491 344.065 343.114 342.179 341.601 340.405C340.11 338.778 338.488 337.277 336.75 335.916" stroke="#263238" stroke-linecap="round" stroke-linejoin="round"/>
<path d="M344.396 360.581C344.242 358.513 343.538 356.524 342.357 354.819C340.474 352.333 338.255 349.031 337.352 347.732" stroke="#263238" stroke-linecap="round" stroke-linejoin="round"/>
<path d="M79.6962 238.495L75.9294 227.737L79.6962 232.303L76.7378 216.161L81.313 227.737L82.9298 205.127L85.6216 226.653L88.58 222.353V227.737L92.0802 220.47L90.1968 233.112L93.4218 230.962L88.3134 237.953L79.6962 238.495Z" fill="#FFBB3B"/>
<path d="M91.5384 235.803H77.5462L80.066 264.054H89.0186L91.5384 235.803Z" fill="#263238" stroke="#263238" stroke-linecap="round" stroke-linejoin="round"/>
<path d="M117.786 263.736H70.1158V364.7H117.786V263.736Z" fill="white" stroke="#263238" stroke-linecap="round" stroke-linejoin="round"/>
<path d="M120.391 263.736H93.9464V364.7H120.391V263.736Z" fill="white" stroke="#263238" stroke-linecap="round" stroke-linejoin="round"/>
<path d="M117.416 263.736H93.9464V364.7H117.416V263.736Z" fill="#263238" stroke="#263238" stroke-linecap="round" stroke-linejoin="round"/>
<path d="M114.776 341.222H93.9464V361.897H114.776V341.222Z" fill="#FFBB3B" stroke="#263238" stroke-linecap="round" stroke-linejoin="round"/>
<path d="M114.776 342.34H93.9464V344.989H114.776V342.34Z" fill="white" stroke="#263238" stroke-linecap="round" stroke-linejoin="round"/>
<path d="M114.776 357.562H93.9464V360.211H114.776V357.562Z" fill="white" stroke="#263238" stroke-linecap="round" stroke-linejoin="round"/>
<path d="M97.8938 341.652V367.796" stroke="#263238" stroke-linecap="round" stroke-linejoin="round"/>
<path d="M105.161 341.652V367.796" stroke="#263238" stroke-linecap="round" stroke-linejoin="round"/>
<path d="M111.542 341.652V367.796" stroke="#263238" stroke-linecap="round" stroke-linejoin="round"/>
<path d="M114.776 267.486H93.9464V297.887H114.776V267.486Z" fill="#FFBB3B" stroke="#263238" stroke-linecap="round" stroke-linejoin="round"/>
<path d="M114.776 268.759H93.9464V271.769H114.776V268.759Z" fill="white" stroke="#263238" stroke-linecap="round" stroke-linejoin="round"/>
<path d="M114.776 288.246H93.9464V291.256H114.776V288.246Z" fill="white" stroke="#263238" stroke-linecap="round" stroke-linejoin="round"/>
<path d="M97.8938 267.967V297.68" stroke="#263238" stroke-linecap="round" stroke-linejoin="round"/>
<path d="M105.161 267.967V297.68" stroke="#263238" stroke-linecap="round" stroke-linejoin="round"/>
<path d="M111.542 267.967V297.68" stroke="#263238" stroke-linecap="round" stroke-linejoin="round"/>
<path d="M114.776 304.122H93.9464V334.523H114.776V304.122Z" fill="#FFBB3B" stroke="#263238" stroke-linecap="round" stroke-linejoin="round"/>
<path d="M114.776 305.395H93.9464V308.405H114.776V305.395Z" fill="white" stroke="#263238" stroke-linecap="round" stroke-linejoin="round"/>
<path d="M114.776 324.882H93.9464V327.892H114.776V324.882Z" fill="white" stroke="#263238" stroke-linecap="round" stroke-linejoin="round"/>
<path d="M97.8938 304.612V334.316" stroke="#263238" stroke-linecap="round" stroke-linejoin="round"/>
<path d="M105.161 304.612V334.316" stroke="#263238" stroke-linecap="round" stroke-linejoin="round"/>
<path d="M111.542 304.612V334.316" stroke="#263238" stroke-linecap="round" stroke-linejoin="round"/>
<path d="M117.777 297.465H93.9464V300.923H117.777V297.465Z" fill="white" stroke="#263238" stroke-linecap="round" stroke-linejoin="round"/>
<path d="M117.777 334.334H93.9464V337.791H117.777V334.334Z" fill="white" stroke="#263238" stroke-linecap="round" stroke-linejoin="round"/>
<path d="M117.777 263.736V364.692" stroke="#263238" stroke-linecap="round" stroke-linejoin="round"/>
<path d="M90.5838 263.736V364.692H93.9464V267.486H117.364V263.693L90.5838 263.736Z" fill="white" stroke="#263238" stroke-linecap="round" stroke-linejoin="round"/>
<path d="M93.9464 267.486V263.736" stroke="#263238" stroke-linecap="round" stroke-linejoin="round"/>
<path d="M117.596 217.356C115.094 212.532 114.045 209.075 114.045 208.275C114.045 206.692 117.485 205.746 117.485 205.746C122.851 202.908 148.092 207.011 159.453 208.903C165.812 210.011 172.246 210.644 178.699 210.795C178.699 210.795 180.273 209.539 182.139 207.957C184.006 206.374 192.864 195.968 196.338 195.057C199.812 194.145 202.96 196.321 202.96 196.321C202.96 196.321 208.645 199.761 207.69 200.423C206.735 201.085 192.864 213.039 189.389 215.249C185.915 217.46 178.665 216.514 172.353 217.778C166.917 218.861 144.901 220.203 139.853 220.616C136.062 221.515 132.083 221.184 128.493 219.67" fill="white"/>
<mask id="mask0_47_973" style="mask-type:luminance" maskUnits="userSpaceOnUse" x="114" y="194" width="94" height="28">
<path d="M117.596 217.356C115.094 212.532 114.045 209.075 114.045 208.275C114.045 206.692 117.485 205.746 117.485 205.746C122.851 202.908 148.092 207.011 159.453 208.903C165.812 210.011 172.246 210.644 178.699 210.795C178.699 210.795 180.273 209.539 182.139 207.957C184.006 206.374 192.864 195.968 196.338 195.057C199.812 194.145 202.96 196.321 202.96 196.321C202.96 196.321 208.645 199.761 207.69 200.423C206.735 201.085 192.864 213.039 189.389 215.249C185.915 217.46 178.665 216.514 172.353 217.778C166.917 218.861 144.901 220.203 139.853 220.616C136.062 221.515 132.083 221.184 128.493 219.67" fill="white"/>
</mask>
<g mask="url(#mask0_47_973)">
<path d="M203.02 196.286C203.02 196.286 199.864 194.076 196.398 195.022C192.932 195.968 184.092 206.383 182.2 207.922C180.308 209.462 178.76 210.76 178.76 210.76C172.306 210.609 165.872 209.977 159.513 208.868C148.152 206.976 122.911 202.848 117.545 205.712C117.545 205.712 114.105 206.658 114.105 208.24C114.224 209.125 114.452 209.992 114.784 210.82L115.257 210.992C115.257 210.992 121.561 210.33 135.166 210.657C148.771 210.984 180.239 212.85 182.26 213.581C183.12 213.908 189.217 212.532 195.977 210.141C201.137 205.936 207.2 200.681 207.81 200.311C208.705 199.752 203.02 196.286 203.02 196.286Z" fill="#FFBB3B"/>
<path opacity="0.5" d="M203.02 196.286C203.02 196.286 199.864 194.076 196.398 195.022C192.932 195.968 184.092 206.383 182.2 207.922C180.308 209.462 178.76 210.76 178.76 210.76C172.306 210.609 165.872 209.977 159.513 208.868C148.152 206.976 122.911 202.848 117.545 205.712C117.545 205.712 114.105 206.658 114.105 208.24C114.224 209.125 114.452 209.992 114.784 210.82L115.257 210.992C115.257 210.992 121.561 210.33 135.166 210.657C148.771 210.984 180.239 212.85 182.26 213.581C183.12 213.908 189.217 212.532 195.977 210.141C201.137 205.936 207.2 200.681 207.81 200.311C208.705 199.752 203.02 196.286 203.02 196.286Z" fill="white"/>
</g>
<path d="M117.596 217.356C115.094 212.532 114.045 209.075 114.045 208.275C114.045 206.692 117.485 205.746 117.485 205.746C122.851 202.908 148.092 207.011 159.453 208.903C165.812 210.011 172.246 210.644 178.699 210.795C178.699 210.795 180.273 209.539 182.139 207.957C184.006 206.374 192.864 195.968 196.338 195.057C199.812 194.145 202.96 196.321 202.96 196.321C202.96 196.321 208.645 199.761 207.69 200.423C206.735 201.085 192.864 213.039 189.389 215.249C185.915 217.46 178.665 216.514 172.353 217.778C166.917 218.861 144.901 220.203 139.853 220.616C136.062 221.515 132.083 221.184 128.493 219.67" stroke="#263238" stroke-linecap="round" stroke-linejoin="round"/>
<path d="M242.219 245.41C242.79 244.326 243.646 243.419 244.695 242.787C245.744 242.155 246.946 241.822 248.17 241.823H305.532C305.532 241.823 309.677 241.823 308.439 249.701C307.201 257.579 290.19 305.678 286.079 320.221C281.968 334.764 281.1 365.414 281.1 365.414H212.3C212.3 365.414 217.752 292.116 242.219 245.41Z" fill="white"/>
<mask id="mask1_47_973" style="mask-type:luminance" maskUnits="userSpaceOnUse" x="212" y="241" width="97" height="125">
<path d="M242.219 245.41C242.79 244.326 243.646 243.419 244.695 242.787C245.744 242.155 246.946 241.822 248.17 241.823H305.532C305.532 241.823 309.677 241.823 308.439 249.701C307.201 257.579 290.19 305.678 286.079 320.221C281.968 334.764 281.1 365.414 281.1 365.414H212.3C212.3 365.414 217.752 292.116 242.219 245.41Z" fill="white"/>
</mask>
<g mask="url(#mask1_47_973)">
<path opacity="0.16" d="M268.053 241.823H248.17C246.946 241.822 245.744 242.155 244.695 242.787C243.646 243.419 242.79 244.326 242.219 245.41C217.752 292.116 212.239 365.388 212.239 365.388H243.096L250.707 336.484L282.441 343.028C282.665 340.603 282.923 338.135 283.224 335.701L282.527 327.961C282.527 327.961 276.026 321.124 273.979 319.413C271.932 317.701 273.291 314.614 272.947 301.275C272.603 287.937 260.632 278.348 256.177 270.135C251.722 261.922 258.576 256.787 264.734 248.574C266.927 245.607 267.821 243.423 268.053 241.823Z" fill="black"/>
</g>
<path d="M242.219 245.41C242.79 244.326 243.646 243.419 244.695 242.787C245.744 242.155 246.946 241.822 248.17 241.823H305.532C305.532 241.823 309.677 241.823 308.439 249.701C307.201 257.579 290.19 305.678 286.079 320.221C281.968 334.764 281.1 365.414 281.1 365.414H212.3C212.3 365.414 217.752 292.116 242.219 245.41Z" stroke="#263238" stroke-linecap="round" stroke-linejoin="round"/>
<path d="M295.582 255.506C289.786 269.034 277.522 322.586 275.527 365.388H281.065C281.065 365.388 281.925 334.703 286.045 320.195C290.164 305.687 307.192 257.579 308.405 249.675C309.617 241.772 305.498 241.798 305.498 241.798C305.498 241.798 300.235 244.661 295.582 255.506Z" fill="#263238" stroke="#263238" stroke-linecap="round" stroke-linejoin="round"/>
<path d="M194.816 228.468C194.816 228.468 185.665 223.101 182.2 213.641C178.734 204.181 209.333 189.028 222.62 188.082C235.907 187.136 239.656 190.602 247.56 204.173C255.463 217.743 260.812 236.354 256.71 245.504C252.608 254.655 245.668 256.865 250.69 264.424C255.712 271.984 269.937 293.449 268.991 303.546C268.045 313.642 258.267 322.466 244.051 323.429C229.835 324.392 210.915 315.852 195.143 301.929C179.37 288.005 183.464 267.529 189.123 260.907C194.781 254.285 203.321 251.756 203.949 245.134C204.577 238.512 194.816 228.468 194.816 228.468Z" fill="#263238" stroke="#263238" stroke-linecap="round" stroke-linejoin="round"/>
<path d="M233.817 213.495C238.676 222.542 244.756 234.66 246.657 241.978C249.976 254.792 232.897 262.859 237.635 269.025" stroke="white" stroke-linecap="round" stroke-linejoin="round"/>
<path d="M227.195 201.644C227.195 201.644 229.087 204.869 231.701 209.616" stroke="white" stroke-linecap="round" stroke-linejoin="round"/>
<path d="M252.685 224.408C253.246 226.104 253.609 227.858 253.769 229.637" stroke="white" stroke-linecap="round" stroke-linejoin="round"/>
<path d="M230.48 196.94C230.48 196.94 245.427 207.982 251.395 221.201" stroke="white" stroke-linecap="round" stroke-linejoin="round"/>
<path d="M209.737 205.222C199.064 208.215 183.713 213.074 184.96 215.877" stroke="white" stroke-linecap="round" stroke-linejoin="round"/>
<path d="M219.601 202.59C219.601 202.59 217.322 203.158 213.925 204.069" stroke="white" stroke-linecap="round" stroke-linejoin="round"/>
<path d="M206.4 197.017C212.513 195.091 218.916 194.247 225.32 194.523" stroke="white" stroke-linecap="round" stroke-linejoin="round"/>
<path d="M202.048 198.798C203.015 198.294 204.015 197.857 205.041 197.49" stroke="white" stroke-linecap="round" stroke-linejoin="round"/>
<path d="M117.596 217.356C116.148 214.704 114.994 211.901 114.156 208.997C114.99 211.902 116.144 214.706 117.596 217.356ZM114.062 208.507C114.062 208.559 114.062 208.619 114.062 208.696C114.079 208.619 114.07 208.559 114.062 208.507ZM117.596 217.348C120.813 223.44 124.814 229.084 129.499 234.135C140.859 246.442 173.677 278.631 176.799 280.842C179.921 283.052 179.009 289.356 176.799 295.668C174.589 301.98 166.384 311.148 166.702 321.227C167.021 331.306 170.142 346.786 169.859 349.943C169.575 353.099 161.68 363.832 161.68 363.832H243.088C243.088 363.832 232.94 350.932 232.94 346.52C232.94 342.108 246.872 285.58 247.499 281.478C248.127 277.376 245.607 274.538 240.559 274.22C235.511 273.901 216.264 269.799 215.318 266.643C214.372 263.487 220.366 251.498 220.366 251.498L201.446 252.444C201.446 252.444 200.5 260.649 199.236 262.231C197.972 263.814 196.08 260.649 191.66 258.447C187.239 256.246 178.76 254.345 175.569 251.817C172.378 249.288 142.124 220.857 142.124 220.857" fill="white"/>
<mask id="mask2_47_973" style="mask-type:luminance" maskUnits="userSpaceOnUse" x="114" y="208" width="134" height="156">
<path d="M117.596 217.356C116.148 214.704 114.994 211.901 114.156 208.997C114.99 211.902 116.144 214.706 117.596 217.356ZM114.062 208.507C114.062 208.559 114.062 208.619 114.062 208.696C114.079 208.619 114.07 208.559 114.062 208.507ZM117.596 217.348C120.813 223.44 124.814 229.084 129.499 234.135C140.859 246.442 173.677 278.631 176.799 280.842C179.921 283.052 179.009 289.356 176.799 295.668C174.589 301.98 166.384 311.148 166.702 321.227C167.021 331.306 170.142 346.786 169.859 349.943C169.575 353.099 161.68 363.832 161.68 363.832H243.088C243.088 363.832 232.94 350.932 232.94 346.52C232.94 342.108 246.872 285.58 247.499 281.478C248.127 277.376 245.607 274.538 240.559 274.22C235.511 273.901 216.264 269.799 215.318 266.643C214.372 263.487 220.366 251.498 220.366 251.498L201.446 252.444C201.446 252.444 200.5 260.649 199.236 262.231C197.972 263.814 196.08 260.649 191.66 258.447C187.239 256.246 178.76 254.345 175.569 251.817C172.378 249.288 142.124 220.857 142.124 220.857" fill="white"/>
</mask>
<g mask="url(#mask2_47_973)">
<path d="M180.402 254.25C181.976 257.002 183.55 259.488 183.55 259.488C183.55 259.488 188.856 262.472 190.18 262.472C191.505 262.472 199.468 266.772 199.468 266.772C199.468 266.772 206.108 265.112 203.768 259.471C203.03 258.026 202.099 256.69 200.999 255.497C200.604 258 199.967 261.277 199.219 262.214C197.955 263.788 196.063 260.632 191.642 258.43C188.779 257.002 184.143 255.695 180.402 254.25Z" fill="#FFBB3B"/>
<path d="M164.2 241.479C154.456 232.458 142.124 220.891 142.124 220.891L134.951 219.859L134.091 220.341C134.091 220.341 154.336 238.254 158.644 240.25C160.387 241.051 162.281 241.47 164.2 241.479Z" fill="#FFBB3B"/>
<path d="M174.408 250.819L173.634 250.131C174.03 250.785 174.253 251.197 174.253 251.197L174.408 250.819Z" fill="#FFBB3B"/>
<g opacity="0.5">
<path d="M180.402 254.25C181.976 257.002 183.55 259.488 183.55 259.488C183.55 259.488 188.856 262.472 190.18 262.472C191.505 262.472 199.468 266.772 199.468 266.772C199.468 266.772 206.108 265.112 203.768 259.471C203.03 258.026 202.099 256.69 200.999 255.497C200.604 258 199.967 261.277 199.219 262.214C197.955 263.788 196.063 260.632 191.642 258.43C188.779 257.002 184.143 255.695 180.402 254.25Z" fill="white"/>
<path d="M164.2 241.479C154.456 232.458 142.124 220.891 142.124 220.891L134.951 219.859L134.091 220.341C134.091 220.341 154.336 238.254 158.644 240.25C160.387 241.051 162.281 241.47 164.2 241.479Z" fill="white"/>
<path d="M174.408 250.819L173.634 250.131C174.03 250.785 174.253 251.197 174.253 251.197L174.408 250.819Z" fill="white"/>
</g>
</g>
<path d="M114.045 208.275C114.041 208.335 114.041 208.395 114.045 208.455M114.156 208.997C114.994 211.901 116.148 214.704 117.596 217.356C116.144 214.706 114.99 211.902 114.156 208.997ZM114.156 208.997C114.133 208.916 114.115 208.832 114.105 208.748M117.596 217.348C120.813 223.44 124.814 229.084 129.499 234.135C140.859 246.442 173.677 278.631 176.799 280.842C179.921 283.052 179.009 289.356 176.799 295.668C174.589 301.98 166.384 311.148 166.702 321.227C167.021 331.306 170.142 346.786 169.859 349.943C169.575 353.099 161.68 363.832 161.68 363.832H243.088C243.088 363.832 232.94 350.932 232.94 346.52C232.94 342.108 246.872 285.58 247.499 281.478C248.127 277.376 245.607 274.538 240.559 274.22C235.511 273.901 216.264 269.799 215.318 266.643C214.372 263.487 220.366 251.498 220.366 251.498L201.446 252.444C201.446 252.444 200.5 260.649 199.236 262.231C197.972 263.814 196.08 260.649 191.66 258.447C187.239 256.246 178.76 254.345 175.569 251.817C172.378 249.288 142.124 220.857 142.124 220.857M114.062 208.507C114.062 208.559 114.062 208.619 114.062 208.696C114.079 208.619 114.07 208.559 114.062 208.507Z" stroke="#263238" stroke-linecap="round" stroke-linejoin="round"/>
<path d="M142.124 220.891C142.124 220.891 132.044 221.08 126.42 216.445" stroke="#263238" stroke-linecap="round" stroke-linejoin="round"/>
<path d="M215.327 266.643C214.381 263.495 220.375 251.498 220.375 251.498L201.455 252.444C201.455 252.444 200.509 260.649 199.245 262.231C197.981 263.814 196.089 260.649 191.668 258.447C191.333 258.275 190.963 258.112 190.585 257.948L189.441 275.931C189.441 275.931 191.101 293.346 211.001 290.035C219.059 288.693 227.659 281.504 235.081 273.42C227.444 272.018 216.049 269.06 215.327 266.643Z" fill="white"/>
<mask id="mask3_47_973" style="mask-type:luminance" maskUnits="userSpaceOnUse" x="189" y="251" width="47" height="40">
<path d="M215.327 266.643C214.381 263.495 220.375 251.498 220.375 251.498L201.455 252.444C201.455 252.444 200.509 260.649 199.245 262.231C197.981 263.814 196.089 260.649 191.668 258.447C191.333 258.275 190.963 258.112 190.585 257.948L189.441 275.931C189.441 275.931 191.101 293.346 211.001 290.035C219.059 288.693 227.659 281.504 235.081 273.42C227.444 272.018 216.049 269.06 215.327 266.643Z" fill="white"/>
</mask>
<g mask="url(#mask3_47_973)">
<path d="M214.794 253.881C214.794 253.881 213.65 260.296 212.73 267.391C211.809 274.486 211.13 279.767 211.13 279.767L215.327 266.643L220.057 252.737C220.057 252.737 215.482 252.737 214.794 253.881Z" fill="#FFBB3B"/>
<path opacity="0.5" d="M214.794 253.881C214.794 253.881 213.65 260.296 212.73 267.391C211.809 274.486 211.13 279.767 211.13 279.767L215.327 266.643L220.057 252.737C220.057 252.737 215.482 252.737 214.794 253.881Z" fill="white"/>
</g>
<path d="M215.327 266.643C214.381 263.495 220.375 251.498 220.375 251.498L201.455 252.444C201.455 252.444 200.509 260.649 199.245 262.231C197.981 263.814 196.089 260.649 191.668 258.447C191.333 258.275 190.963 258.112 190.585 257.948L189.441 275.931C189.441 275.931 191.101 293.346 211.001 290.035C219.059 288.693 227.659 281.504 235.081 273.42C227.444 272.018 216.049 269.06 215.327 266.643Z" stroke="#263238" stroke-linecap="round" stroke-linejoin="round"/>
<path d="M199.236 262.231C197.972 263.805 196.08 260.649 191.66 258.447C188.873 257.045 184.436 255.773 180.763 254.397C179.723 251.928 178.347 248.712 177.461 246.768C175.887 243.328 173.359 245.504 173.359 245.504C172.04 244.004 170.974 242.299 170.203 240.456C168.629 237.016 166.1 237.3 162.635 236.672C159.169 236.044 151.902 229.414 151.902 229.414C151.902 229.414 148.505 226.834 147.103 225.552C145.469 228.769 141.556 234.427 133.094 237.962C146.587 252.057 173.961 278.838 176.833 280.85C179.989 283.052 179.043 289.364 176.833 295.677C174.623 301.989 166.419 311.157 166.737 321.236C167.055 331.315 170.177 346.795 169.893 349.951C169.609 352.763 163.314 361.578 161.947 363.47L165.154 363.832H181.856C181.761 355.369 181.77 320.832 187.557 307.072C194.188 291.256 199.236 262.231 199.236 262.231Z" fill="#FFBB3B"/>
<mask id="mask4_47_973" style="mask-type:luminance" maskUnits="userSpaceOnUse" x="133" y="225" width="67" height="139">
<path d="M199.236 262.231C197.972 263.805 196.08 260.649 191.66 258.447C188.873 257.045 184.436 255.773 180.763 254.397C179.723 251.928 178.347 248.712 177.461 246.768C175.887 243.328 173.359 245.504 173.359 245.504C172.04 244.004 170.974 242.299 170.203 240.456C168.629 237.016 166.1 237.3 162.635 236.672C159.169 236.044 151.902 229.414 151.902 229.414C151.902 229.414 148.505 226.834 147.103 225.552C145.469 228.769 141.556 234.427 133.094 237.962C146.587 252.057 173.961 278.838 176.833 280.85C179.989 283.052 179.043 289.364 176.833 295.677C174.623 301.989 166.419 311.157 166.737 321.236C167.055 331.315 170.177 346.795 169.893 349.951C169.609 352.763 163.314 361.578 161.947 363.47L165.154 363.832H181.856C181.761 355.369 181.77 320.832 187.557 307.072C194.188 291.256 199.236 262.231 199.236 262.231Z" fill="white"/>
</mask>
<g mask="url(#mask4_47_973)">
<path opacity="0.16" d="M191.66 258.447C188.873 257.045 184.436 255.773 180.763 254.397C179.723 251.928 178.347 248.712 177.461 246.768C175.887 243.328 173.359 245.504 173.359 245.504C172.04 244.004 170.974 242.299 170.203 240.456C168.629 237.016 166.1 237.3 162.635 236.672C159.169 236.044 151.902 229.414 151.902 229.414C151.902 229.414 148.505 226.834 147.103 225.552C146.404 226.918 145.571 228.211 144.618 229.414C150.259 234.187 156.486 239.243 158.661 240.25C162.961 242.236 163.968 240.576 167.261 242.572C170.555 244.567 174.227 251.172 174.227 251.172C174.227 251.172 176.223 245.857 177.882 249.512C179.542 253.167 183.524 259.462 183.524 259.462C183.524 259.462 188.83 262.446 190.155 262.446C191.195 262.446 196.295 265.095 198.462 266.239C198.944 263.719 199.21 262.205 199.21 262.205C197.972 263.805 196.08 260.649 191.66 258.447Z" fill="black"/>
</g>
<path d="M199.236 262.231C197.972 263.805 196.08 260.649 191.66 258.447C188.873 257.045 184.436 255.773 180.763 254.397C179.723 251.928 178.347 248.712 177.461 246.768C175.887 243.328 173.359 245.504 173.359 245.504C172.04 244.004 170.974 242.299 170.203 240.456C168.629 237.016 166.1 237.3 162.635 236.672C159.169 236.044 151.902 229.414 151.902 229.414C151.902 229.414 148.505 226.834 147.103 225.552C145.469 228.769 141.556 234.427 133.094 237.962C146.587 252.057 173.961 278.838 176.833 280.85C179.989 283.052 179.043 289.364 176.833 295.677C174.623 301.989 166.419 311.157 166.737 321.236C167.055 331.315 170.177 346.795 169.893 349.951C169.609 352.763 163.314 361.578 161.947 363.47L165.154 363.832H181.856C181.761 355.369 181.77 320.832 187.557 307.072C194.188 291.256 199.236 262.231 199.236 262.231Z" stroke="#263238" stroke-linecap="round" stroke-linejoin="round"/>
<path d="M199.46 261.13C199.46 261.13 195.538 259.926 193.122 262.042C190.705 264.158 187.102 275.011 184.977 286.784C183.668 293.638 184.572 300.731 187.557 307.037C187.557 307.037 192.52 294.025 194.025 287.687C195.53 281.349 199.46 261.13 199.46 261.13Z" fill="#FFBB3B"/>
<mask id="mask5_47_973" style="mask-type:luminance" maskUnits="userSpaceOnUse" x="184" y="260" width="16" height="48">
<path d="M199.46 261.13C199.46 261.13 195.538 259.926 193.122 262.042C190.705 264.158 187.102 275.011 184.977 286.784C183.668 293.638 184.572 300.731 187.557 307.037C187.557 307.037 192.52 294.025 194.025 287.687C195.53 281.349 199.46 261.13 199.46 261.13Z" fill="white"/>
</mask>
<g mask="url(#mask5_47_973)">
<path opacity="0.16" d="M191.935 263.048C191.935 263.048 194.773 262.36 195.942 262.756C196.927 263.178 197.848 263.737 198.677 264.416L199.46 261.13C198.286 260.531 196.954 260.311 195.65 260.503C193.698 260.898 191.935 263.048 191.935 263.048Z" fill="black"/>
</g>
<path d="M199.46 261.13C199.46 261.13 195.538 259.926 193.122 262.042C190.705 264.158 187.102 275.011 184.977 286.784C183.668 293.638 184.572 300.731 187.557 307.037C187.557 307.037 192.52 294.025 194.025 287.687C195.53 281.349 199.46 261.13 199.46 261.13Z" stroke="#263238" stroke-linecap="round" stroke-linejoin="round"/>
<path d="M173.049 262.162L178.097 282.673L166.737 256.796" stroke="#263238" stroke-linecap="round" stroke-linejoin="round"/>
<path d="M206.305 363.832H243.096C243.096 363.832 232.948 350.932 232.948 346.52C232.948 342.108 246.88 285.58 247.508 281.478C248.136 277.376 245.616 274.538 240.568 274.22C235.52 273.901 216.273 269.799 215.327 266.643C215.327 266.643 208.068 292.202 205.549 309.557C203.381 324.444 205.626 355.335 206.305 363.832Z" fill="#FFBB3B"/>
<mask id="mask6_47_973" style="mask-type:luminance" maskUnits="userSpaceOnUse" x="204" y="266" width="44" height="98">
<path d="M206.305 363.832H243.096C243.096 363.832 232.948 350.932 232.948 346.52C232.948 342.108 246.88 285.58 247.508 281.478C248.136 277.376 245.616 274.538 240.568 274.22C235.52 273.901 216.273 269.799 215.327 266.643C215.327 266.643 208.068 292.202 205.549 309.557C203.381 324.444 205.626 355.335 206.305 363.832Z" fill="white"/>
</mask>
<g mask="url(#mask6_47_973)">
<path opacity="0.16" d="M240.568 274.22C236.431 273.962 222.766 271.158 217.442 268.423L219.377 272.895C222.883 274.755 226.654 276.066 230.557 276.782C236.964 277.926 242.924 277.703 246.82 283.43L247.009 283.714C247.25 282.613 247.413 281.839 247.465 281.478C248.144 277.376 245.616 274.538 240.568 274.22Z" fill="black"/>
</g>
<path d="M206.305 363.832H243.096C243.096 363.832 232.948 350.932 232.948 346.52C232.948 342.108 246.88 285.58 247.508 281.478C248.136 277.376 245.616 274.538 240.568 274.22C235.52 273.901 216.273 269.799 215.327 266.643C215.327 266.643 208.068 292.202 205.549 309.557C203.381 324.444 205.626 355.335 206.305 363.832Z" stroke="#263238" stroke-linecap="round" stroke-linejoin="round"/>
<path d="M215.327 266.643C215.327 266.643 205.592 297.603 205.549 309.557C205.549 309.557 219.377 292.813 221.183 281.048C222.989 269.283 215.327 266.643 215.327 266.643Z" fill="#FFBB3B"/>
<mask id="mask7_47_973" style="mask-type:luminance" maskUnits="userSpaceOnUse" x="205" y="266" width="17" height="44">
<path d="M215.327 266.643C215.327 266.643 205.592 297.603 205.549 309.557C205.549 309.557 219.377 292.813 221.183 281.048C222.989 269.283 215.327 266.643 215.327 266.643Z" fill="white"/>
</mask>
<g mask="url(#mask7_47_973)">
<path opacity="0.16" d="M213.65 270.599C215.113 270.55 216.565 270.858 217.882 271.496C219.2 272.135 220.341 273.084 221.209 274.263C221.209 274.263 219.3 268.647 215.327 266.643L213.65 270.599Z" fill="black"/>
</g>
<path d="M215.327 266.643C215.327 266.643 205.592 297.603 205.549 309.557C205.549 309.557 219.377 292.813 221.183 281.048C222.989 269.283 215.327 266.643 215.327 266.643Z" stroke="#263238" stroke-linecap="round" stroke-linejoin="round"/>
<path d="M319.258 358.009C319.258 358.009 326.387 358.302 331.057 358.973C334.171 359.395 337.306 359.645 340.448 359.721C340.448 359.721 337.868 354.509 335.116 353.039C332.364 351.568 327.376 348.936 323.197 349.521C319.017 350.106 313.04 354.32 313.539 355.662C314.038 357.003 316.265 357.605 319.258 358.009Z" fill="white"/>
<mask id="mask8_47_973" style="mask-type:luminance" maskUnits="userSpaceOnUse" x="313" y="349" width="28" height="11">
<path d="M319.258 358.009C319.258 358.009 326.387 358.302 331.057 358.973C334.171 359.395 337.306 359.645 340.448 359.721C340.448 359.721 337.868 354.509 335.116 353.039C332.364 351.568 327.376 348.936 323.197 349.521C319.017 350.106 313.04 354.32 313.539 355.662C314.038 357.003 316.265 357.605 319.258 358.009Z" fill="white"/>
</mask>
<g mask="url(#mask8_47_973)">
<path d="M319.258 358.009C319.258 358.009 326.387 358.302 331.057 358.973C334.171 359.395 337.306 359.645 340.448 359.721C340.448 359.721 337.868 354.509 335.116 353.039C332.364 351.568 327.376 348.936 323.197 349.521C319.017 350.106 313.04 354.32 313.539 355.662C314.038 357.003 316.265 357.605 319.258 358.009Z" fill="#FFBB3B"/>
<path opacity="0.5" d="M319.258 358.009C319.258 358.009 326.387 358.302 331.057 358.973C334.171 359.395 337.306 359.645 340.448 359.721C340.448 359.721 337.868 354.509 335.116 353.039C332.364 351.568 327.376 348.936 323.197 349.521C319.017 350.106 313.04 354.32 313.539 355.662C314.038 357.003 316.265 357.605 319.258 358.009Z" fill="white"/>
</g>
<path d="M319.258 358.009C319.258 358.009 326.387 358.302 331.057 358.973C334.171 359.395 337.306 359.645 340.448 359.721C340.448 359.721 337.868 354.509 335.116 353.039C332.364 351.568 327.376 348.936 323.197 349.521C319.017 350.106 313.04 354.32 313.539 355.662C314.038 357.003 316.265 357.605 319.258 358.009Z" stroke="#263238" stroke-linecap="round" stroke-linejoin="round"/>
<path d="M331.1 355.877C331.1 355.877 336.75 352.944 338.161 352.987C339.571 353.03 348.945 359.368 348.481 360.383C348.165 360.854 347.71 361.213 347.179 361.411C346.648 361.608 346.068 361.634 345.522 361.484C344.482 360.994 338.169 358.31 338.169 358.31L334.041 359.282L331.1 355.877Z" fill="white"/>
<mask id="mask9_47_973" style="mask-type:luminance" maskUnits="userSpaceOnUse" x="331" y="352" width="18" height="10">
<path d="M331.1 355.877C331.1 355.877 336.75 352.944 338.161 352.987C339.571 353.03 348.945 359.368 348.481 360.383C348.165 360.854 347.71 361.213 347.179 361.411C346.648 361.608 346.068 361.634 345.522 361.484C344.482 360.994 338.169 358.31 338.169 358.31L334.041 359.282L331.1 355.877Z" fill="white"/>
</mask>
<g mask="url(#mask9_47_973)">
<path d="M331.1 355.877C331.1 355.877 336.75 352.944 338.161 352.987C339.571 353.03 348.945 359.368 348.481 360.383C348.016 361.398 345.797 362.223 345.522 361.484C345.247 360.744 338.169 358.31 338.169 358.31L334.041 359.282L331.1 355.877Z" fill="#FFBB3B"/>
<path opacity="0.5" d="M331.1 355.877C331.1 355.877 336.75 352.944 338.161 352.987C339.571 353.03 348.945 359.368 348.481 360.383C348.016 361.398 345.797 362.223 345.522 361.484C345.247 360.744 338.169 358.31 338.169 358.31L334.041 359.282L331.1 355.877Z" fill="white"/>
</g>
<path d="M331.1 355.877C331.1 355.877 336.75 352.944 338.161 352.987C339.571 353.03 348.945 359.368 348.481 360.383C348.165 360.854 347.71 361.213 347.179 361.411C346.648 361.608 346.068 361.634 345.522 361.484C344.482 360.994 338.169 358.31 338.169 358.31L334.041 359.282L331.1 355.877Z" stroke="#263238" stroke-linecap="round" stroke-linejoin="round"/>
<path d="M327.067 351.052C327.067 351.052 334.6 350.811 336.097 351.568C337.593 352.325 344.353 363.918 343.338 364.76C342.323 365.603 339.519 365.354 339.605 364.416C339.691 363.479 333.379 357.27 333.379 357.27L328.468 356.195L327.067 351.052Z" fill="white"/>
<mask id="mask10_47_973" style="mask-type:luminance" maskUnits="userSpaceOnUse" x="327" y="351" width="17" height="15">
<path d="M327.067 351.052C327.067 351.052 334.6 350.811 336.097 351.568C337.593 352.325 344.353 363.918 343.338 364.76C342.323 365.603 339.519 365.354 339.605 364.416C339.691 363.479 333.379 357.27 333.379 357.27L328.468 356.195L327.067 351.052Z" fill="white"/>
</mask>
<g mask="url(#mask10_47_973)">
<path d="M327.067 351.052C327.067 351.052 334.6 350.811 336.097 351.568C337.593 352.325 344.353 363.918 343.338 364.76C342.323 365.603 339.519 365.354 339.605 364.416C339.691 363.479 333.379 357.27 333.379 357.27L328.468 356.195L327.067 351.052Z" fill="#FFBB3B"/>
<path opacity="0.5" d="M327.067 351.052C327.067 351.052 334.6 350.811 336.097 351.568C337.593 352.325 344.353 363.918 343.338 364.76C342.323 365.603 339.519 365.354 339.605 364.416C339.691 363.479 333.379 357.27 333.379 357.27L328.468 356.195L327.067 351.052Z" fill="white"/>
</g>
<path d="M327.067 351.052C327.067 351.052 334.6 350.811 336.097 351.568C337.593 352.325 344.353 363.918 343.338 364.76C342.323 365.603 339.519 365.354 339.605 364.416C339.691 363.479 333.379 357.27 333.379 357.27L328.468 356.195L327.067 351.052Z" stroke="#263238" stroke-linecap="round" stroke-linejoin="round"/>
<path d="M322.603 349.495C322.603 349.495 330.231 349.246 331.745 350.02C333.259 350.794 340.104 362.516 339.072 363.376C338.04 364.236 335.219 363.969 335.305 363.023C335.391 362.077 329.002 355.791 329.002 355.791L324.031 354.698L322.603 349.495Z" fill="white"/>
<mask id="mask11_47_973" style="mask-type:luminance" maskUnits="userSpaceOnUse" x="322" y="349" width="18" height="15">
<path d="M322.603 349.495C322.603 349.495 330.231 349.246 331.745 350.02C333.259 350.794 340.104 362.516 339.072 363.376C338.04 364.236 335.219 363.969 335.305 363.023C335.391 362.077 329.002 355.791 329.002 355.791L324.031 354.698L322.603 349.495Z" fill="white"/>
</mask>
<g mask="url(#mask11_47_973)">
<path d="M322.603 349.495C322.603 349.495 330.231 349.246 331.745 350.02C333.259 350.794 340.104 362.516 339.072 363.376C338.04 364.236 335.219 363.969 335.305 363.023C335.391 362.077 329.002 355.791 329.002 355.791L324.031 354.698L322.603 349.495Z" fill="#FFBB3B"/>
<path opacity="0.5" d="M322.603 349.495C322.603 349.495 330.231 349.246 331.745 350.02C333.259 350.794 340.104 362.516 339.072 363.376C338.04 364.236 335.219 363.969 335.305 363.023C335.391 362.077 329.002 355.791 329.002 355.791L324.031 354.698L322.603 349.495Z" fill="white"/>
</g>
<path d="M322.603 349.495C322.603 349.495 330.231 349.246 331.745 350.02C333.259 350.794 340.104 362.516 339.072 363.376C338.04 364.236 335.219 363.969 335.305 363.023C335.391 362.077 329.002 355.791 329.002 355.791L324.031 354.698L322.603 349.495Z" stroke="#263238" stroke-linecap="round" stroke-linejoin="round"/>
<path d="M235.872 305.79C241.393 314.296 252.479 335.847 255.712 338.272C260.761 342.056 294.507 351.241 297.758 353.752C301.009 356.264 300.785 358.783 303.864 359.704C306.943 360.624 318.484 363.264 322.887 363.677C327.29 364.09 325.321 361.363 325.321 361.363L317.813 356.203L324.358 354.587C324.358 354.587 330.919 362.481 332.149 362.911C333.379 363.341 335.546 362.911 335.409 361.94C335.168 360.383 328.167 347.646 325.682 347.105C323.197 346.563 308.112 348.653 308.112 348.653C308.112 348.653 276.473 327.316 275.905 326.559C275.905 326.559 274.013 321.193 272.465 318.983C270.917 316.772 269.937 317.409 269.937 317.409C269.937 317.409 270.573 314.562 269.627 313.616L264.579 308.568L264.398 308.809C263.538 307.089 262.678 305.128 261.732 302.892C259.092 296.674 249.744 279.225 248.17 276.705C246.992 274.822 237.119 273.471 232.114 272.904" fill="#FFBB3B"/>
<mask id="mask12_47_973" style="mask-type:luminance" maskUnits="userSpaceOnUse" x="232" y="272" width="104" height="92">
<path d="M235.872 305.79C241.393 314.296 252.479 335.847 255.712 338.272C260.761 342.056 294.507 351.241 297.758 353.752C301.009 356.264 300.785 358.783 303.864 359.704C306.943 360.624 318.484 363.264 322.887 363.677C327.29 364.09 325.321 361.363 325.321 361.363L317.813 356.203L324.358 354.587C324.358 354.587 330.919 362.481 332.149 362.911C333.379 363.341 335.546 362.911 335.409 361.94C335.168 360.383 328.167 347.646 325.682 347.105C323.197 346.563 308.112 348.653 308.112 348.653C308.112 348.653 276.473 327.316 275.905 326.559C275.905 326.559 274.013 321.193 272.465 318.983C270.917 316.772 269.937 317.409 269.937 317.409C269.937 317.409 270.573 314.562 269.627 313.616L264.579 308.568L264.398 308.809C263.538 307.089 262.678 305.128 261.732 302.892C259.092 296.674 249.744 279.225 248.17 276.705C246.992 274.822 237.119 273.471 232.114 272.904" fill="white"/>
</mask>
<g mask="url(#mask12_47_973)">
<path opacity="0.16" d="M257.854 306.332C261.982 309.996 260.606 309.996 259.686 313.212C258.765 316.428 260.374 312.068 264.269 312.3C268.165 312.533 267.021 317.564 266.557 318.484C266.093 319.404 271.373 320.548 270.453 322.603C269.533 324.659 264.269 327.643 261.294 330.627C258.318 333.611 269.077 325.811 272.74 325.587C273.858 325.51 274.779 325.656 275.553 325.639C274.741 323.338 273.698 321.125 272.439 319.034C270.857 316.824 269.911 317.46 269.911 317.46C269.911 317.46 270.547 314.614 269.601 313.668L264.553 308.62L264.373 308.86C263.513 307.14 262.653 305.18 261.707 302.944C259.066 296.726 249.718 279.276 248.144 276.757C246.966 274.873 237.093 273.523 232.088 272.955L232.544 276.937L232.656 277.023C232.656 277.023 238.839 278.167 240.903 278.399C242.967 278.631 245.487 280.455 245.255 281.839C245.023 283.224 239.071 289.399 240.903 289.863C242.735 290.327 244.799 285.279 246.863 285.967C248.927 286.655 253.7 302.668 257.854 306.332Z" fill="black"/>
</g>
<path d="M235.872 305.79C241.393 314.296 252.479 335.847 255.712 338.272C260.761 342.056 294.507 351.241 297.758 353.752C301.009 356.264 300.785 358.783 303.864 359.704C306.943 360.624 318.484 363.264 322.887 363.677C327.29 364.09 325.321 361.363 325.321 361.363L317.813 356.203L324.358 354.587C324.358 354.587 330.919 362.481 332.149 362.911C333.379 363.341 335.546 362.911 335.409 361.94C335.168 360.383 328.167 347.646 325.682 347.105C323.197 346.563 308.112 348.653 308.112 348.653C308.112 348.653 276.473 327.316 275.905 326.559C275.905 326.559 274.013 321.193 272.465 318.983C270.917 316.772 269.937 317.409 269.937 317.409C269.937 317.409 270.573 314.562 269.627 313.616L264.579 308.568L264.398 308.809C263.538 307.089 262.678 305.128 261.732 302.892C259.092 296.674 249.744 279.225 248.17 276.705C246.992 274.822 237.119 273.471 232.114 272.904" stroke="#263238" stroke-linecap="round" stroke-linejoin="round"/>
<path d="M235.958 294.12C235.726 294.894 235.528 295.668 235.373 296.459" stroke="#263238" stroke-linecap="round" stroke-linejoin="round"/>
<path d="M244.317 279.887C241.615 282.967 239.336 286.395 237.541 290.078" stroke="#263238" stroke-linecap="round" stroke-linejoin="round"/>
<path d="M256.951 328.718C259.273 325.278 262.971 320.918 267.047 319.671" stroke="#263238" stroke-linecap="round" stroke-linejoin="round"/>
<path d="M254.379 332.949C254.379 332.949 254.792 332.141 255.532 330.919" stroke="#263238" stroke-linecap="round" stroke-linejoin="round"/>
<path d="M254.379 327.514C254.379 327.514 258.602 316.953 262.825 314.235C267.047 311.518 264.631 316.953 264.631 316.953" stroke="#263238" stroke-linecap="round" stroke-linejoin="round"/>
<path d="M297.758 353.761C301.017 356.281 300.785 358.792 303.864 359.712C306.943 360.632 318.484 363.273 322.887 363.685C327.29 364.098 325.321 361.372 325.321 361.372L317.813 356.212L324.358 354.595C324.358 354.595 330.919 362.49 332.149 362.92C333.379 363.35 335.718 363.505 335.409 361.948C334.807 358.938 328.167 347.655 325.682 347.113C323.197 346.571 308.112 348.661 308.112 348.661C308.112 348.661 279.294 328.881 276.137 326.74C263.9 327.918 258.077 334.325 255.626 338.169L255.712 338.238C260.761 342.056 294.507 351.241 297.758 353.761Z" fill="white"/>
<mask id="mask13_47_973" style="mask-type:luminance" maskUnits="userSpaceOnUse" x="255" y="326" width="81" height="38">
<path d="M297.758 353.761C301.017 356.281 300.785 358.792 303.864 359.712C306.943 360.632 318.484 363.273 322.887 363.685C327.29 364.098 325.321 361.372 325.321 361.372L317.813 356.212L324.358 354.595C324.358 354.595 330.919 362.49 332.149 362.92C333.379 363.35 335.718 363.505 335.409 361.948C334.807 358.938 328.167 347.655 325.682 347.113C323.197 346.571 308.112 348.661 308.112 348.661C308.112 348.661 279.294 328.881 276.137 326.74C263.9 327.918 258.077 334.325 255.626 338.169L255.712 338.238C260.761 342.056 294.507 351.241 297.758 353.761Z" fill="white"/>
</mask>
<g mask="url(#mask13_47_973)">
<path d="M335.4 361.983C333.835 358.156 328.159 347.689 325.673 347.148C323.188 346.606 308.104 348.696 308.104 348.696C308.104 348.696 279.285 328.916 276.129 326.774C272.917 327.054 269.765 327.816 266.781 329.036C271.33 331.616 301.654 348.816 305.481 349.581C309.54 350.441 323.085 348.214 325.467 349.814C326.981 350.828 331.487 357.975 334.531 363.049C335.4 362.92 335.718 362.757 335.4 361.983Z" fill="#FFBB3B"/>
<path opacity="0.5" d="M335.4 361.983C332.958 356.504 328.159 347.689 325.673 347.148C323.188 346.606 308.104 348.696 308.104 348.696C308.104 348.696 279.285 328.916 276.129 326.774C272.917 327.054 269.765 327.816 266.781 329.036C271.33 331.616 301.654 348.816 305.481 349.581C309.54 350.441 323.085 348.214 325.467 349.814C326.981 350.828 331.487 357.975 334.531 363.049C335.4 362.92 335.744 362.748 335.4 361.983Z" fill="white"/>
</g>
<path d="M297.758 353.761C301.017 356.281 300.785 358.792 303.864 359.712C306.943 360.632 318.484 363.273 322.887 363.685C327.29 364.098 325.321 361.372 325.321 361.372L317.813 356.212L324.358 354.595C324.358 354.595 330.919 362.49 332.149 362.92C333.379 363.35 335.718 363.505 335.409 361.948C334.807 358.938 328.167 347.655 325.682 347.113C323.197 346.571 308.112 348.661 308.112 348.661C308.112 348.661 279.294 328.881 276.137 326.74C263.9 327.918 258.077 334.325 255.626 338.169L255.712 338.238C260.761 342.056 294.507 351.241 297.758 353.761Z" stroke="#263238" stroke-linecap="round" stroke-linejoin="round"/>
<path d="M221.751 203.588L195.848 214.398C195.534 218.95 194.407 223.41 192.52 227.565C189.458 234.04 191.247 246.295 194.188 252.909C197.129 259.522 210.089 256.934 214.828 256.108C218.042 255.497 221.19 254.578 224.228 253.365C225.611 253.898 227.108 254.07 228.576 253.866C230.044 253.661 231.436 253.086 232.621 252.195C232.621 252.195 218.758 213.28 221.751 203.588Z" fill="white"/>
<mask id="mask14_47_973" style="mask-type:luminance" maskUnits="userSpaceOnUse" x="190" y="203" width="43" height="55">
<path d="M221.751 203.588L195.848 214.398C195.534 218.95 194.407 223.41 192.52 227.565C189.458 234.04 191.247 246.295 194.188 252.909C197.129 259.522 210.089 256.934 214.828 256.108C218.042 255.497 221.19 254.578 224.228 253.365C225.611 253.898 227.108 254.07 228.576 253.866C230.044 253.661 231.436 253.086 232.621 252.195C232.621 252.195 218.758 213.28 221.751 203.588Z" fill="white"/>
</mask>
<g mask="url(#mask14_47_973)">
<path d="M221.751 203.588L195.848 214.398C195.534 218.95 194.407 223.41 192.52 227.565C189.458 234.04 191.247 246.295 194.188 252.909C194.68 253.972 195.472 254.869 196.467 255.489V254.99C196.467 254.99 191.66 243.079 192.571 236.208C193.483 229.336 197.387 225.888 197.843 221.545C198.299 217.202 198.067 215.138 206.778 211.93C215.49 208.722 219.145 205.746 220.057 208.946C220.968 212.145 224.641 233.232 227.16 238.272C229.68 243.311 229.448 248.592 225.561 250.871C221.632 253.229 217.422 255.084 213.031 256.392L214.862 256.074C218.076 255.462 221.224 254.544 224.262 253.33C225.646 253.863 227.142 254.036 228.61 253.831C230.079 253.627 231.471 253.052 232.656 252.161C232.656 252.161 218.758 213.28 221.751 203.588Z" fill="#FFBB3B"/>
<path opacity="0.5" d="M221.751 203.588L195.848 214.398C195.534 218.95 194.407 223.41 192.52 227.565C189.458 234.04 191.247 246.295 194.188 252.909C194.68 253.972 195.472 254.869 196.467 255.489V254.99C196.467 254.99 191.66 243.079 192.571 236.208C193.483 229.336 197.387 225.888 197.843 221.545C198.299 217.202 198.067 215.138 206.778 211.93C215.49 208.722 219.145 205.746 220.057 208.946C220.968 212.145 224.641 233.232 227.16 238.272C229.68 243.311 229.448 248.592 225.561 250.871C221.632 253.229 217.422 255.084 213.031 256.392L214.862 256.074C218.076 255.462 221.224 254.544 224.262 253.33C225.646 253.863 227.142 254.036 228.61 253.831C230.079 253.627 231.471 253.052 232.656 252.161C232.656 252.161 218.758 213.28 221.751 203.588Z" fill="white"/>
</g>
<path d="M221.751 203.588L195.848 214.398C195.534 218.95 194.407 223.41 192.52 227.565C189.458 234.04 191.247 246.295 194.188 252.909C197.129 259.522 210.089 256.934 214.828 256.108C218.042 255.497 221.19 254.578 224.228 253.365C225.611 253.898 227.108 254.07 228.576 253.866C230.044 253.661 231.436 253.086 232.621 252.195C232.621 252.195 218.758 213.28 221.751 203.588Z" stroke="#263238" stroke-linecap="round" stroke-linejoin="round"/>
<path d="M208.662 220.538C208.732 222.061 208.543 223.585 208.103 225.045C207.415 226.765 200.922 233.524 201.12 234.255C201.317 234.986 201.902 237.334 203.055 237.558" stroke="#263238" stroke-linecap="round" stroke-linejoin="round"/>
<path d="M215.86 226.584C216.763 224.778 219.73 226.541 219.687 230.609" stroke="#263238" stroke-linecap="round" stroke-linejoin="round"/>
<path d="M201.154 221.269C201.154 221.269 203.682 220.16 205.944 224.254" stroke="#263238" stroke-linecap="round" stroke-linejoin="round"/>
<path d="M212.265 232.544C215.187 232.691 217.965 233.856 220.117 235.838" stroke="#263238" stroke-width="0.5" stroke-linecap="round" stroke-linejoin="round"/>
<path d="M198.101 227.169C199.612 227.371 201.087 227.779 202.487 228.382" stroke="#263238" stroke-width="0.5" stroke-linecap="round" stroke-linejoin="round"/>
<path d="M208.378 216.72C207.71 216.367 206.969 216.174 206.214 216.156C205.459 216.138 204.71 216.296 204.026 216.617C201.713 217.726 200.294 218.947 200.449 217.528C200.604 216.109 203.321 214.544 204.138 214.338C204.955 214.131 208.61 213.564 208.378 216.72Z" fill="#263238"/>
<path d="M214.862 213.512C217.273 215.463 219.189 217.956 220.452 220.788C222.172 225.088 223.531 220.392 222.172 217.58C220.814 214.768 216.883 211.775 214.862 213.512Z" fill="#263238"/>
<path d="M233 259.548C233 261.552 231.865 263.177 230.471 263.177C229.078 263.177 227.952 261.552 227.952 259.548C227.952 257.544 229.078 252.444 230.471 252.444C231.865 252.444 233 257.544 233 259.548Z" fill="#FFBB3B" stroke="#263238" stroke-linecap="round" stroke-linejoin="round"/>
<path d="M216.084 225.802C215.985 226.064 215.907 226.335 215.851 226.61C215.602 227.883 215.353 230.54 215.851 230.652C216.35 230.764 217.571 228.278 217.786 227.006C217.835 226.756 217.864 226.503 217.872 226.249C217.285 226.065 216.688 225.915 216.084 225.802Z" fill="#263238"/>
<path d="M201.412 221.02C201.336 221.245 201.275 221.475 201.231 221.708C200.973 222.981 200.982 225.776 201.524 225.879C202.066 225.982 202.951 223.368 203.201 222.095C203.263 221.786 203.298 221.473 203.304 221.158C202.688 220.988 202.046 220.942 201.412 221.02Z" fill="#263238"/>
<path d="M215.86 226.627L216.72 225.028C218.083 225.293 219.319 226.008 220.229 227.057" stroke="#263238" stroke-width="0.75" stroke-linecap="round" stroke-linejoin="round"/>
<path d="M201.412 221.02L202.272 220.014C202.272 220.014 202.642 219.833 204.671 220.753" stroke="#263238" stroke-width="0.75" stroke-linecap="round" stroke-linejoin="round"/>
<path d="M198.153 244.343C198.153 244.343 199.597 241.686 201.532 241.686C203.467 241.686 204.912 246.029 204.912 246.029" stroke="#263238" stroke-linecap="round" stroke-linejoin="round"/>
<path d="M135.88 358.947C134.01 358.854 132.173 358.417 130.462 357.657C130.223 357.569 130.005 357.433 129.821 357.257C129.636 357.082 129.49 356.871 129.389 356.637C129.289 356.404 129.237 356.152 129.237 355.898C129.237 355.643 129.289 355.391 129.39 355.158C129.49 354.924 129.637 354.713 129.822 354.538C130.007 354.363 130.225 354.227 130.463 354.139C130.702 354.051 130.956 354.013 131.21 354.026C131.464 354.039 131.713 354.104 131.941 354.217C133.661 354.948 135.889 355.404 136.482 355.146C137.574 353.924 139.251 346.546 137.084 342.985C136.594 342.194 136.138 342.048 135.837 342.013C134.607 341.841 132.784 343.106 132.139 343.733C131.959 343.903 131.748 344.035 131.518 344.123C131.287 344.211 131.041 344.252 130.794 344.245C130.547 344.238 130.305 344.182 130.079 344.081C129.854 343.98 129.651 343.836 129.482 343.656C129.312 343.476 129.18 343.265 129.092 343.034C129.004 342.804 128.963 342.558 128.97 342.311C128.977 342.064 129.033 341.822 129.134 341.596C129.235 341.371 129.379 341.168 129.559 340.999C129.894 340.672 132.999 337.877 136.31 338.324C137.131 338.444 137.914 338.751 138.597 339.223C139.28 339.694 139.845 340.316 140.249 341.042C143.439 346.245 141.255 356.143 138.804 358.104C137.952 358.707 136.922 359.004 135.88 358.947Z" fill="white"/>
<mask id="mask15_47_973" style="mask-type:luminance" maskUnits="userSpaceOnUse" x="128" y="338" width="14" height="21">
<path d="M135.88 358.947C134.01 358.854 132.173 358.417 130.462 357.657C130.223 357.569 130.005 357.433 129.821 357.257C129.636 357.082 129.49 356.871 129.389 356.637C129.289 356.404 129.237 356.152 129.237 355.898C129.237 355.643 129.289 355.391 129.39 355.158C129.49 354.924 129.637 354.713 129.822 354.538C130.007 354.363 130.225 354.227 130.463 354.139C130.702 354.051 130.956 354.013 131.21 354.026C131.464 354.039 131.713 354.104 131.941 354.217C133.661 354.948 135.889 355.404 136.482 355.146C137.574 353.924 139.251 346.546 137.084 342.985C136.594 342.194 136.138 342.048 135.837 342.013C134.607 341.841 132.784 343.106 132.139 343.733C131.959 343.903 131.748 344.035 131.518 344.123C131.287 344.211 131.041 344.252 130.794 344.245C130.547 344.238 130.305 344.182 130.079 344.081C129.854 343.98 129.651 343.836 129.482 343.656C129.312 343.476 129.18 343.265 129.092 343.034C129.004 342.804 128.963 342.558 128.97 342.311C128.977 342.064 129.033 341.822 129.134 341.596C129.235 341.371 129.379 341.168 129.559 340.999C129.894 340.672 132.999 337.877 136.31 338.324C137.131 338.444 137.914 338.751 138.597 339.223C139.28 339.694 139.845 340.316 140.249 341.042C143.439 346.245 141.255 356.143 138.804 358.104C137.952 358.707 136.922 359.004 135.88 358.947Z" fill="white"/>
</mask>
<g mask="url(#mask15_47_973)">
<path d="M138.4 342.418C138.174 341.883 137.821 341.413 137.371 341.047C136.921 340.681 136.389 340.431 135.82 340.319C133.67 339.975 131.649 342.134 131.425 342.375C131.22 342.622 131.093 342.925 131.06 343.246C131.028 343.566 131.092 343.888 131.245 344.172C131.583 344.104 131.896 343.943 132.148 343.708C132.793 343.106 134.616 341.841 135.846 341.988C136.147 341.988 136.602 342.168 137.093 342.959C139.26 346.485 137.583 353.899 136.491 355.12C135.897 355.378 133.678 354.922 131.95 354.191C131.737 354.102 131.51 354.052 131.279 354.045C131.295 354.28 131.369 354.509 131.495 354.708C131.621 354.908 131.795 355.073 132.001 355.189C133.089 355.769 134.288 356.11 135.519 356.186C136.221 356.22 136.909 355.979 137.437 355.515C139.053 354.028 140.481 346.417 138.4 342.418Z" fill="#FFBB3B"/>
<path opacity="0.5" d="M138.4 342.418C138.174 341.883 137.821 341.413 137.371 341.047C136.921 340.681 136.389 340.431 135.82 340.319C133.67 339.975 131.649 342.134 131.425 342.375C131.22 342.622 131.093 342.925 131.06 343.246C131.028 343.566 131.092 343.888 131.245 344.172C131.583 344.104 131.896 343.943 132.148 343.708C132.793 343.106 134.616 341.841 135.846 341.988C136.147 341.988 136.602 342.168 137.093 342.959C139.26 346.485 137.583 353.899 136.491 355.12C135.897 355.378 133.678 354.922 131.95 354.191C131.737 354.102 131.51 354.052 131.279 354.045C131.295 354.28 131.369 354.509 131.495 354.708C131.621 354.908 131.795 355.073 132.001 355.189C133.089 355.769 134.288 356.11 135.519 356.186C136.221 356.22 136.909 355.979 137.437 355.515C139.053 354.028 140.481 346.417 138.4 342.418Z" fill="white"/>
</g>
<path d="M135.88 358.947C134.01 358.854 132.173 358.417 130.462 357.657C130.223 357.569 130.005 357.433 129.821 357.257C129.636 357.082 129.49 356.871 129.389 356.637C129.289 356.404 129.237 356.152 129.237 355.898C129.237 355.643 129.289 355.391 129.39 355.158C129.49 354.924 129.637 354.713 129.822 354.538C130.007 354.363 130.225 354.227 130.463 354.139C130.702 354.051 130.956 354.013 131.21 354.026C131.464 354.039 131.713 354.104 131.941 354.217C133.661 354.948 135.889 355.404 136.482 355.146C137.574 353.924 139.251 346.546 137.084 342.985C136.594 342.194 136.138 342.048 135.837 342.013C134.607 341.841 132.784 343.106 132.139 343.733C131.959 343.903 131.748 344.035 131.518 344.123C131.287 344.211 131.041 344.252 130.794 344.245C130.547 344.238 130.305 344.182 130.079 344.081C129.854 343.98 129.651 343.836 129.482 343.656C129.312 343.476 129.18 343.265 129.092 343.034C129.004 342.804 128.963 342.558 128.97 342.311C128.977 342.064 129.033 341.822 129.134 341.596C129.235 341.371 129.379 341.168 129.559 340.999C129.894 340.672 132.999 337.877 136.31 338.324C137.131 338.444 137.914 338.751 138.597 339.223C139.28 339.694 139.845 340.316 140.249 341.042C143.439 346.245 141.255 356.143 138.804 358.104C137.952 358.707 136.922 359.004 135.88 358.947Z" stroke="#263238" stroke-linecap="round" stroke-linejoin="round"/>
<path d="M132.595 336.759H111.912V364.21H132.595V336.759Z" fill="white"/>
<mask id="mask16_47_973" style="mask-type:luminance" maskUnits="userSpaceOnUse" x="111" y="336" width="22" height="29">
<path d="M132.595 336.759H111.912V364.21H132.595V336.759Z" fill="white"/>
</mask>
<g mask="url(#mask16_47_973)">
<path d="M120.383 336.759H111.912V364.21H120.383V336.759Z" fill="#FFBB3B"/>
<path opacity="0.5" d="M120.383 336.759H111.912V364.21H120.383V336.759Z" fill="white"/>
</g>
<path d="M132.595 336.759H111.912V364.21H132.595V336.759Z" stroke="#263238" stroke-linecap="round" stroke-linejoin="round"/>
<path d="M246.252 363.832H157.896L155.015 315.259C154.935 314.788 154.959 314.305 155.084 313.844C155.209 313.383 155.432 312.955 155.739 312.589C156.045 312.222 156.428 311.927 156.86 311.723C157.291 311.519 157.762 311.411 158.24 311.406H245.874C246.354 311.406 246.829 311.51 247.265 311.712C247.701 311.914 248.088 312.209 248.398 312.575C248.709 312.942 248.935 313.373 249.062 313.836C249.189 314.299 249.213 314.785 249.133 315.259L246.252 363.832Z" fill="#263238" stroke="#263238" stroke-linecap="round" stroke-linejoin="round"/>
<path d="M162.248 312.567H245.238C245.706 312.562 246.171 312.66 246.598 312.853C247.025 313.047 247.404 313.331 247.71 313.687C248.016 314.042 248.24 314.46 248.367 314.912C248.494 315.363 248.521 315.837 248.445 316.299" stroke="white" stroke-linecap="round" stroke-linejoin="round"/>
<path d="M155.66 315.534C155.729 314.721 156.102 313.964 156.705 313.414C157.307 312.864 158.095 312.562 158.911 312.567" stroke="white" stroke-linecap="round" stroke-linejoin="round"/>
<path d="M246.622 359.102H157.526V363.832H246.622V359.102Z" fill="white" stroke="#263238" stroke-linecap="round" stroke-linejoin="round"/>
<path d="M201.756 341.592C205.242 341.592 208.068 339.898 208.068 337.808C208.068 335.718 205.242 334.024 201.756 334.024C198.27 334.024 195.444 335.718 195.444 337.808C195.444 339.898 198.27 341.592 201.756 341.592Z" fill="white" stroke="#263238" stroke-linecap="round" stroke-linejoin="round"/>
<path d="M381.006 363.273H49.1662V371.331H381.006V363.273Z" fill="#263238"/>
<path d="M294.963 64.5H135.321C129.94 64.5 125.577 68.8624 125.577 74.2438V165.842C125.577 171.224 129.94 175.586 135.321 175.586H294.963C300.344 175.586 304.707 171.224 304.707 165.842V74.2438C304.707 68.8624 300.344 64.5 294.963 64.5Z" fill="#FFBB3B"/>
<path d="M219.354 128.338C233.835 126.011 243.688 112.385 241.361 97.9037C239.034 83.4226 225.408 73.57 210.927 75.8972C196.445 78.2245 186.593 91.8504 188.92 106.331C191.247 120.813 204.873 130.665 219.354 128.338Z" fill="#263238"/>
<path d="M214.94 107.027L206.09 118.388C205.789 118.861 205.376 119.251 204.886 119.524C204.397 119.798 203.847 119.945 203.287 119.953C202.518 119.963 201.776 119.67 201.223 119.136C200.941 118.878 200.719 118.562 200.571 118.21C200.422 117.859 200.351 117.479 200.363 117.098C200.391 116.243 200.692 115.42 201.223 114.75L211.311 102.271L201.851 89.784C201.411 89.198 201.17 88.4869 201.163 87.7544C201.16 87.3175 201.249 86.8849 201.422 86.4838C201.595 86.0827 201.849 85.7218 202.169 85.4238C202.469 85.1105 202.829 84.8613 203.228 84.6913C203.628 84.5214 204.057 84.4341 204.491 84.4348C205.046 84.4438 205.591 84.5918 206.074 84.8652C206.558 85.1386 206.966 85.5287 207.26 86L215.808 97.2574L224.408 86.1892C224.716 85.6728 225.146 85.2402 225.66 84.9297C226.175 84.6192 226.758 84.4404 227.358 84.409C227.731 84.4081 228.099 84.484 228.441 84.6319C228.783 84.7799 229.091 84.9968 229.345 85.269C229.616 85.5242 229.832 85.832 229.98 86.1736C230.128 86.5152 230.204 86.8834 230.205 87.2556C230.196 87.9217 229.966 88.5659 229.551 89.0874L219.429 102.039L229.207 114.939C229.669 115.516 229.927 116.23 229.938 116.969C229.941 117.396 229.851 117.819 229.674 118.208C229.497 118.597 229.238 118.943 228.915 119.222C228.284 119.829 227.442 120.168 226.567 120.168C226.009 120.161 225.461 120.014 224.974 119.74C224.487 119.467 224.077 119.076 223.781 118.603L214.94 107.027Z" fill="white"/>
<path d="M265.74 156.348H164.509C162.457 156.348 160.488 155.533 159.036 154.081C157.585 152.629 156.769 150.661 156.769 148.608C156.769 146.555 157.585 144.586 159.036 143.135C160.488 141.683 162.457 140.868 164.509 140.868H265.74C267.793 140.868 269.761 141.683 271.213 143.135C272.665 144.586 273.48 146.555 273.48 148.608C273.48 150.661 272.665 152.629 271.213 154.081C269.761 155.533 267.793 156.348 265.74 156.348Z" fill="white"/>
<path d="M178.381 151.102C178.314 151.102 178.247 151.088 178.185 151.062C178.123 151.035 178.067 150.996 178.02 150.947C177.969 150.897 177.929 150.836 177.902 150.77C177.876 150.703 177.863 150.632 177.865 150.56C177.865 150.439 177.898 150.32 177.96 150.216L178.734 149.012H177.151C177.078 149.016 177.005 149.004 176.937 148.977C176.869 148.951 176.807 148.91 176.756 148.857C176.667 148.754 176.619 148.623 176.619 148.488C176.619 148.352 176.667 148.221 176.756 148.118C176.807 148.065 176.869 148.025 176.937 147.998C177.005 147.971 177.078 147.959 177.151 147.963L178.708 148.006L178.02 146.888C177.951 146.774 177.913 146.643 177.908 146.51C177.906 146.438 177.919 146.367 177.945 146.3C177.972 146.234 178.012 146.173 178.063 146.123C178.111 146.073 178.169 146.034 178.232 146.008C178.296 145.981 178.364 145.968 178.433 145.968C178.529 145.966 178.624 145.993 178.705 146.045C178.786 146.097 178.85 146.172 178.889 146.26L179.645 147.61L180.368 146.32C180.413 146.22 180.485 146.134 180.576 146.072C180.667 146.01 180.774 145.974 180.884 145.968C180.951 145.968 181.018 145.982 181.08 146.008C181.142 146.035 181.198 146.074 181.245 146.123C181.295 146.17 181.335 146.227 181.362 146.291C181.389 146.355 181.401 146.423 181.4 146.492C181.399 146.615 181.363 146.734 181.297 146.836L180.54 148.049L182.114 148.006C182.187 148.002 182.26 148.013 182.328 148.04C182.397 148.067 182.458 148.108 182.509 148.161C182.598 148.264 182.646 148.395 182.646 148.531C182.646 148.666 182.598 148.797 182.509 148.9C182.458 148.953 182.397 148.994 182.328 149.021C182.26 149.048 182.187 149.06 182.114 149.055H180.523L181.228 150.156C181.307 150.289 181.352 150.44 181.357 150.595C181.359 150.664 181.348 150.734 181.322 150.799C181.297 150.864 181.259 150.923 181.211 150.973C181.165 151.021 181.111 151.06 181.05 151.087C180.99 151.113 180.924 151.127 180.858 151.128C180.752 151.125 180.648 151.092 180.56 151.033C180.471 150.973 180.402 150.89 180.359 150.792L179.645 149.528L178.932 150.792C178.88 150.892 178.8 150.974 178.703 151.029C178.605 151.084 178.493 151.11 178.381 151.102Z" fill="black"/>
<path d="M186.276 151.102C186.208 151.102 186.142 151.088 186.08 151.062C186.017 151.035 185.961 150.996 185.915 150.947C185.864 150.897 185.824 150.836 185.797 150.77C185.771 150.703 185.758 150.632 185.76 150.56C185.76 150.439 185.793 150.32 185.855 150.216L186.629 149.012H185.046C184.973 149.016 184.9 149.004 184.832 148.977C184.764 148.951 184.702 148.91 184.651 148.857C184.562 148.754 184.514 148.623 184.514 148.488C184.514 148.352 184.562 148.221 184.651 148.118C184.702 148.065 184.764 148.024 184.832 147.998C184.9 147.971 184.973 147.959 185.046 147.963L186.603 148.006L185.872 146.845C185.803 146.73 185.764 146.6 185.76 146.467C185.758 146.395 185.771 146.324 185.797 146.257C185.824 146.191 185.864 146.13 185.915 146.08C185.963 146.03 186.021 145.991 186.084 145.965C186.148 145.938 186.216 145.925 186.285 145.925C186.381 145.923 186.475 145.95 186.557 146.002C186.638 146.054 186.702 146.129 186.74 146.217L187.497 147.567L188.22 146.277C188.265 146.177 188.337 146.091 188.428 146.029C188.519 145.967 188.626 145.931 188.736 145.925C188.803 145.925 188.87 145.939 188.932 145.965C188.994 145.992 189.05 146.031 189.097 146.08C189.147 146.127 189.187 146.184 189.214 146.248C189.24 146.312 189.253 146.38 189.252 146.449C189.25 146.572 189.215 146.691 189.148 146.793L188.392 148.006L189.965 147.963C190.039 147.959 190.112 147.97 190.18 147.997C190.248 148.024 190.31 148.065 190.361 148.118C190.449 148.221 190.498 148.352 190.498 148.488C190.498 148.623 190.449 148.754 190.361 148.857C190.31 148.91 190.248 148.951 190.18 148.978C190.112 149.005 190.039 149.017 189.965 149.012H188.374L189.08 150.113C189.159 150.246 189.204 150.397 189.209 150.552C189.211 150.621 189.199 150.691 189.174 150.756C189.149 150.821 189.111 150.88 189.062 150.93C189.017 150.978 188.963 151.017 188.902 151.043C188.841 151.07 188.776 151.084 188.71 151.085C188.603 151.083 188.499 151.051 188.411 150.991C188.322 150.932 188.253 150.848 188.211 150.749L187.497 149.485L186.783 150.749C186.741 150.85 186.671 150.937 186.581 150.999C186.491 151.062 186.385 151.097 186.276 151.102Z" fill="black"/>
<path d="M194.171 151.102C194.103 151.102 194.036 151.088 193.974 151.062C193.912 151.035 193.856 150.996 193.81 150.947C193.759 150.897 193.719 150.836 193.692 150.77C193.665 150.703 193.653 150.632 193.655 150.56C193.655 150.439 193.687 150.32 193.749 150.216L194.523 149.012H192.941C192.868 149.016 192.795 149.004 192.727 148.977C192.658 148.951 192.597 148.91 192.545 148.857C192.457 148.754 192.408 148.623 192.408 148.488C192.408 148.352 192.457 148.221 192.545 148.118C192.597 148.065 192.658 148.024 192.727 147.998C192.795 147.971 192.868 147.959 192.941 147.963L194.498 148.006L193.767 146.845C193.698 146.73 193.659 146.6 193.655 146.467C193.653 146.395 193.665 146.324 193.692 146.257C193.719 146.191 193.759 146.13 193.81 146.08C193.858 146.03 193.915 145.991 193.979 145.965C194.042 145.938 194.111 145.925 194.179 145.925C194.276 145.923 194.37 145.95 194.451 146.002C194.532 146.054 194.596 146.129 194.635 146.217L195.392 147.567L196.114 146.277C196.16 146.177 196.232 146.091 196.323 146.029C196.414 145.967 196.52 145.931 196.63 145.925C196.698 145.925 196.765 145.939 196.827 145.965C196.889 145.992 196.945 146.031 196.992 146.08C197.042 146.127 197.082 146.184 197.109 146.248C197.135 146.312 197.148 146.38 197.146 146.449C197.145 146.572 197.109 146.691 197.043 146.793L196.286 148.006L197.86 147.963C197.933 147.959 198.007 147.97 198.075 147.997C198.143 148.024 198.205 148.065 198.256 148.118C198.344 148.221 198.393 148.352 198.393 148.488C198.393 148.623 198.344 148.754 198.256 148.857C198.205 148.91 198.143 148.951 198.075 148.978C198.007 149.005 197.933 149.017 197.86 149.012H196.269L196.974 150.113C197.054 150.246 197.098 150.397 197.103 150.552C197.106 150.621 197.094 150.691 197.069 150.756C197.044 150.821 197.006 150.88 196.957 150.93C196.912 150.978 196.857 151.017 196.797 151.043C196.736 151.07 196.671 151.084 196.605 151.085C196.498 151.083 196.394 151.051 196.305 150.991C196.217 150.932 196.147 150.848 196.106 150.749L195.392 149.485L194.678 150.749C194.636 150.85 194.566 150.937 194.476 150.999C194.386 151.062 194.28 151.097 194.171 151.102Z" fill="black"/>
<path d="M202.1 151.102C202.032 151.102 201.966 151.088 201.904 151.062C201.841 151.035 201.785 150.996 201.739 150.947C201.688 150.897 201.648 150.836 201.621 150.77C201.595 150.703 201.582 150.632 201.584 150.56C201.584 150.439 201.617 150.32 201.679 150.216L202.453 149.012H200.87C200.797 149.016 200.724 149.004 200.656 148.977C200.588 148.951 200.526 148.91 200.475 148.857C200.386 148.754 200.338 148.623 200.338 148.488C200.338 148.352 200.386 148.221 200.475 148.118C200.526 148.065 200.588 148.024 200.656 147.998C200.724 147.971 200.797 147.959 200.87 147.963L202.427 148.006L201.696 146.845C201.627 146.73 201.588 146.6 201.584 146.467C201.582 146.395 201.595 146.324 201.621 146.257C201.648 146.191 201.688 146.13 201.739 146.08C201.787 146.03 201.845 145.991 201.908 145.965C201.972 145.938 202.04 145.925 202.109 145.925C202.205 145.923 202.3 145.95 202.381 146.002C202.462 146.054 202.526 146.129 202.564 146.217L203.321 147.567L204.044 146.277C204.089 146.177 204.161 146.091 204.252 146.029C204.343 145.967 204.45 145.931 204.56 145.925C204.627 145.925 204.694 145.939 204.756 145.965C204.818 145.992 204.874 146.031 204.921 146.08C204.971 146.127 205.011 146.184 205.038 146.248C205.064 146.312 205.077 146.38 205.076 146.449C205.075 146.572 205.039 146.691 204.972 146.793L204.216 148.006L205.789 147.963C205.863 147.959 205.936 147.97 206.004 147.997C206.073 148.024 206.134 148.065 206.185 148.118C206.273 148.221 206.322 148.352 206.322 148.488C206.322 148.623 206.273 148.754 206.185 148.857C206.134 148.91 206.073 148.951 206.004 148.978C205.936 149.005 205.863 149.017 205.789 149.012H204.198L204.904 150.113C204.983 150.246 205.028 150.397 205.033 150.552C205.035 150.621 205.023 150.691 204.998 150.756C204.973 150.821 204.935 150.88 204.886 150.93C204.841 150.978 204.787 151.017 204.726 151.043C204.665 151.07 204.6 151.084 204.534 151.085C204.427 151.082 204.324 151.049 204.236 150.99C204.147 150.93 204.078 150.847 204.035 150.749L203.321 149.485L202.607 150.749C202.565 150.85 202.495 150.937 202.405 150.999C202.315 151.062 202.209 151.097 202.1 151.102Z" fill="black"/>
<path d="M209.96 151.102C209.893 151.102 209.826 151.088 209.764 151.062C209.702 151.035 209.646 150.996 209.599 150.947C209.548 150.897 209.508 150.836 209.482 150.77C209.455 150.703 209.442 150.632 209.444 150.56C209.448 150.44 209.481 150.322 209.539 150.216L210.313 149.012H208.731C208.657 149.016 208.584 149.004 208.516 148.977C208.448 148.951 208.386 148.91 208.335 148.857C208.247 148.754 208.198 148.623 208.198 148.488C208.198 148.352 208.247 148.221 208.335 148.118C208.386 148.065 208.448 148.025 208.516 147.998C208.584 147.971 208.657 147.959 208.731 147.963L210.287 148.006L209.556 146.845C209.487 146.73 209.449 146.6 209.444 146.467C209.442 146.395 209.455 146.324 209.482 146.257C209.508 146.191 209.548 146.13 209.599 146.08C209.647 146.03 209.705 145.991 209.768 145.965C209.832 145.938 209.9 145.925 209.969 145.925C210.065 145.923 210.16 145.95 210.241 146.002C210.322 146.054 210.386 146.129 210.425 146.217L211.182 147.567L211.904 146.277C211.949 146.177 212.022 146.091 212.113 146.029C212.204 145.967 212.31 145.931 212.42 145.925C212.488 145.924 212.555 145.937 212.617 145.964C212.679 145.99 212.735 146.03 212.781 146.08C212.832 146.127 212.871 146.184 212.898 146.248C212.925 146.312 212.938 146.38 212.936 146.449C212.935 146.572 212.899 146.691 212.833 146.793L212.076 148.006L213.65 147.963C213.723 147.959 213.796 147.97 213.865 147.997C213.933 148.024 213.995 148.065 214.045 148.118C214.134 148.221 214.182 148.352 214.182 148.488C214.182 148.623 214.134 148.754 214.045 148.857C213.995 148.91 213.933 148.951 213.865 148.978C213.796 149.005 213.723 149.017 213.65 149.012H212.059L212.764 150.113C212.844 150.246 212.888 150.397 212.893 150.552C212.895 150.621 212.884 150.691 212.859 150.756C212.834 150.821 212.795 150.88 212.747 150.93C212.702 150.978 212.647 151.017 212.586 151.043C212.526 151.07 212.46 151.084 212.394 151.085C212.288 151.082 212.184 151.049 212.096 150.99C212.008 150.93 211.938 150.847 211.895 150.749L211.182 149.485L210.468 150.749C210.425 150.85 210.355 150.937 210.265 150.999C210.175 151.062 210.07 151.097 209.96 151.102Z" fill="black"/>
<path d="M217.855 151.102C217.788 151.102 217.721 151.088 217.659 151.062C217.597 151.035 217.541 150.996 217.494 150.947C217.443 150.897 217.403 150.836 217.376 150.77C217.35 150.703 217.337 150.632 217.339 150.56C217.343 150.44 217.376 150.322 217.434 150.216L218.208 149.012H216.634C216.559 149.017 216.485 149.005 216.415 148.978C216.345 148.952 216.282 148.91 216.23 148.857C216.141 148.754 216.093 148.623 216.093 148.488C216.093 148.352 216.141 148.221 216.23 148.118C216.282 148.065 216.345 148.023 216.415 147.997C216.485 147.97 216.559 147.959 216.634 147.963L218.182 148.006L217.451 146.845C217.382 146.73 217.344 146.6 217.339 146.467C217.337 146.395 217.35 146.324 217.376 146.257C217.403 146.191 217.443 146.13 217.494 146.08C217.542 146.03 217.6 145.991 217.663 145.965C217.727 145.938 217.795 145.925 217.864 145.925C217.96 145.923 218.055 145.95 218.136 146.002C218.217 146.054 218.281 146.129 218.32 146.217L219.076 147.567L219.799 146.277C219.844 146.177 219.916 146.091 220.007 146.029C220.098 145.967 220.205 145.931 220.315 145.925C220.382 145.924 220.45 145.937 220.512 145.964C220.574 145.99 220.63 146.03 220.676 146.08C220.726 146.127 220.766 146.184 220.793 146.248C220.82 146.312 220.832 146.38 220.831 146.449C220.83 146.572 220.794 146.691 220.728 146.793L219.971 148.006L221.545 147.963C221.618 147.959 221.691 147.97 221.759 147.997C221.828 148.024 221.889 148.065 221.94 148.118C222.029 148.221 222.077 148.352 222.077 148.488C222.077 148.623 222.029 148.754 221.94 148.857C221.889 148.91 221.828 148.951 221.759 148.978C221.691 149.005 221.618 149.017 221.545 149.012H219.954L220.659 150.113C220.738 150.246 220.783 150.397 220.788 150.552C220.79 150.621 220.779 150.691 220.753 150.756C220.728 150.821 220.69 150.88 220.642 150.93C220.596 150.978 220.542 151.017 220.481 151.043C220.421 151.07 220.355 151.084 220.289 151.085C220.183 151.082 220.079 151.049 219.991 150.99C219.902 150.93 219.833 150.847 219.79 150.749L219.076 149.485L218.363 150.749C218.32 150.85 218.25 150.937 218.16 150.999C218.07 151.062 217.964 151.097 217.855 151.102Z" fill="black"/>
<path d="M225.75 151.102C225.683 151.102 225.616 151.088 225.554 151.062C225.491 151.035 225.435 150.996 225.389 150.947C225.338 150.897 225.298 150.836 225.271 150.77C225.245 150.703 225.232 150.632 225.234 150.56C225.234 150.439 225.267 150.32 225.329 150.216L226.103 149.012H224.52C224.447 149.016 224.374 149.004 224.306 148.977C224.238 148.951 224.176 148.91 224.125 148.857C224.036 148.755 223.988 148.623 223.988 148.488C223.988 148.352 224.036 148.221 224.125 148.118C224.176 148.065 224.238 148.025 224.306 147.998C224.374 147.971 224.447 147.959 224.52 147.963L226.077 148.006L225.32 146.888C225.251 146.774 225.213 146.643 225.208 146.51C225.206 146.438 225.219 146.367 225.246 146.3C225.272 146.234 225.312 146.173 225.363 146.123C225.411 146.073 225.469 146.034 225.532 146.008C225.596 145.981 225.664 145.968 225.733 145.968C225.829 145.966 225.924 145.993 226.005 146.045C226.086 146.097 226.15 146.172 226.189 146.26L226.945 147.61L227.668 146.32C227.713 146.22 227.786 146.134 227.877 146.072C227.968 146.01 228.074 145.974 228.184 145.968C228.252 145.967 228.319 145.98 228.381 146.007C228.443 146.033 228.499 146.073 228.545 146.123C228.595 146.17 228.635 146.227 228.662 146.291C228.689 146.355 228.702 146.423 228.7 146.492C228.699 146.615 228.663 146.734 228.597 146.836L227.84 148.049L229.414 148.006C229.487 148.002 229.56 148.013 229.628 148.04C229.697 148.067 229.758 148.108 229.809 148.161C229.898 148.264 229.946 148.395 229.946 148.531C229.946 148.666 229.898 148.798 229.809 148.9C229.758 148.953 229.697 148.995 229.628 149.021C229.56 149.048 229.487 149.06 229.414 149.055H227.823L228.528 150.156C228.607 150.289 228.652 150.44 228.657 150.595C228.659 150.664 228.648 150.734 228.623 150.799C228.597 150.864 228.559 150.923 228.511 150.973C228.465 151.021 228.411 151.06 228.35 151.087C228.29 151.113 228.224 151.127 228.158 151.128C228.052 151.125 227.948 151.092 227.86 151.033C227.771 150.973 227.702 150.89 227.659 150.792L226.945 149.528L226.232 150.792C226.185 150.882 226.117 150.957 226.032 151.011C225.948 151.066 225.85 151.097 225.75 151.102Z" fill="black"/>
<path d="M233.645 151.102C233.577 151.102 233.51 151.088 233.448 151.062C233.386 151.035 233.33 150.996 233.284 150.947C233.233 150.897 233.193 150.836 233.166 150.77C233.14 150.703 233.127 150.632 233.129 150.56C233.133 150.44 233.165 150.322 233.223 150.216L233.997 149.012H232.424C232.35 149.018 232.277 149.007 232.208 148.98C232.14 148.953 232.078 148.911 232.028 148.857C231.934 148.757 231.882 148.625 231.882 148.488C231.882 148.35 231.934 148.218 232.028 148.118C232.078 148.064 232.14 148.022 232.208 147.995C232.277 147.969 232.35 147.957 232.424 147.963L233.972 148.006L233.241 146.845C233.172 146.73 233.133 146.6 233.129 146.467C233.127 146.396 233.138 146.326 233.164 146.261C233.189 146.195 233.227 146.135 233.276 146.084C233.325 146.034 233.384 145.994 233.449 145.966C233.513 145.939 233.583 145.925 233.653 145.925C233.75 145.923 233.844 145.95 233.925 146.002C234.006 146.054 234.07 146.129 234.109 146.217L234.866 147.567L235.588 146.277C235.634 146.177 235.706 146.091 235.797 146.029C235.888 145.967 235.994 145.931 236.104 145.925C236.172 145.923 236.24 145.935 236.302 145.962C236.365 145.989 236.42 146.029 236.466 146.08C236.516 146.127 236.556 146.184 236.583 146.248C236.609 146.312 236.622 146.38 236.62 146.449C236.619 146.572 236.583 146.691 236.517 146.793L235.76 148.006L237.334 147.963C237.407 147.959 237.481 147.97 237.549 147.997C237.617 148.024 237.679 148.065 237.73 148.118C237.818 148.221 237.867 148.352 237.867 148.488C237.867 148.623 237.818 148.754 237.73 148.857C237.679 148.91 237.617 148.951 237.549 148.978C237.481 149.005 237.407 149.017 237.334 149.012H235.743L236.448 150.113C236.528 150.246 236.572 150.397 236.577 150.552C236.58 150.619 236.569 150.687 236.545 150.75C236.521 150.814 236.485 150.872 236.439 150.922C236.392 150.971 236.337 151.011 236.275 151.039C236.213 151.067 236.146 151.083 236.079 151.085C235.972 151.082 235.869 151.049 235.78 150.99C235.692 150.93 235.622 150.847 235.58 150.749L234.866 149.485L234.152 150.749C234.11 150.85 234.04 150.937 233.95 150.999C233.86 151.062 233.754 151.097 233.645 151.102Z" fill="black"/>
<path d="M241.54 151.102C241.472 151.102 241.405 151.088 241.343 151.062C241.281 151.035 241.225 150.996 241.178 150.947C241.128 150.897 241.088 150.836 241.061 150.77C241.034 150.703 241.022 150.632 241.024 150.56C241.028 150.44 241.06 150.322 241.118 150.216L241.892 149.012H240.31C240.238 149.016 240.166 149.005 240.099 148.978C240.032 148.951 239.972 148.91 239.923 148.857C239.829 148.757 239.777 148.625 239.777 148.488C239.777 148.35 239.829 148.218 239.923 148.118C239.972 148.065 240.032 148.024 240.099 147.997C240.166 147.97 240.238 147.959 240.31 147.963L241.866 148.006L241.135 146.845C241.066 146.73 241.028 146.6 241.024 146.467C241.021 146.396 241.033 146.326 241.059 146.261C241.084 146.195 241.122 146.135 241.171 146.084C241.22 146.034 241.279 145.994 241.343 145.966C241.408 145.939 241.478 145.925 241.548 145.925C241.645 145.923 241.739 145.95 241.82 146.002C241.901 146.054 241.965 146.129 242.004 146.217L242.761 147.567L243.483 146.277C243.529 146.177 243.601 146.091 243.692 146.029C243.783 145.967 243.889 145.931 243.999 145.925C244.067 145.923 244.135 145.935 244.197 145.962C244.259 145.989 244.315 146.029 244.36 146.08C244.411 146.127 244.451 146.184 244.477 146.248C244.504 146.312 244.517 146.38 244.515 146.449C244.514 146.572 244.478 146.691 244.412 146.793L243.655 148.006L245.229 147.963C245.302 147.959 245.376 147.97 245.444 147.997C245.512 148.024 245.574 148.065 245.625 148.118C245.713 148.221 245.762 148.352 245.762 148.488C245.762 148.623 245.713 148.754 245.625 148.857C245.574 148.91 245.512 148.951 245.444 148.978C245.376 149.005 245.302 149.017 245.229 149.012H243.638L244.343 150.113C244.423 150.246 244.467 150.397 244.472 150.552C244.474 150.619 244.463 150.687 244.44 150.75C244.416 150.814 244.38 150.872 244.333 150.922C244.287 150.971 244.231 151.011 244.17 151.039C244.108 151.067 244.041 151.083 243.973 151.085C243.867 151.082 243.763 151.049 243.675 150.99C243.587 150.93 243.517 150.847 243.475 150.749L242.761 149.485L242.047 150.749C242.005 150.85 241.934 150.937 241.845 150.999C241.755 151.062 241.649 151.097 241.54 151.102Z" fill="black"/>
<path d="M249.4 151.102C249.332 151.102 249.266 151.088 249.203 151.062C249.141 151.035 249.085 150.996 249.039 150.947C248.988 150.897 248.948 150.836 248.921 150.77C248.895 150.703 248.882 150.632 248.884 150.56C248.888 150.44 248.92 150.322 248.979 150.216L249.753 149.012H248.17C248.098 149.016 248.026 149.005 247.959 148.978C247.892 148.951 247.832 148.91 247.783 148.857C247.689 148.757 247.637 148.625 247.637 148.488C247.637 148.35 247.689 148.218 247.783 148.118C247.832 148.065 247.892 148.024 247.959 147.997C248.026 147.97 248.098 147.959 248.17 147.963L249.727 148.006L248.996 146.845C248.927 146.73 248.888 146.6 248.884 146.467C248.882 146.395 248.895 146.324 248.921 146.257C248.948 146.191 248.988 146.13 249.039 146.08C249.087 146.03 249.144 145.991 249.208 145.965C249.272 145.938 249.34 145.925 249.409 145.925C249.505 145.923 249.599 145.95 249.68 146.002C249.762 146.054 249.826 146.129 249.864 146.217L250.621 147.567L251.344 146.277C251.389 146.177 251.461 146.091 251.552 146.029C251.643 145.967 251.749 145.931 251.86 145.925C251.927 145.923 251.995 145.935 252.057 145.962C252.12 145.989 252.176 146.029 252.221 146.08C252.271 146.127 252.311 146.184 252.338 146.248C252.364 146.312 252.377 146.38 252.376 146.449C252.374 146.572 252.339 146.691 252.272 146.793L251.516 148.006L253.089 147.963C253.163 147.959 253.236 147.97 253.304 147.997C253.372 148.024 253.434 148.065 253.485 148.118C253.573 148.221 253.622 148.352 253.622 148.488C253.622 148.623 253.573 148.754 253.485 148.857C253.434 148.91 253.372 148.951 253.304 148.978C253.236 149.005 253.163 149.017 253.089 149.012H251.498L252.204 150.113C252.283 150.246 252.328 150.397 252.333 150.552C252.335 150.621 252.323 150.691 252.298 150.756C252.273 150.821 252.235 150.88 252.186 150.93C252.141 150.978 252.086 151.017 252.026 151.043C251.965 151.07 251.9 151.084 251.834 151.085C251.727 151.082 251.624 151.049 251.535 150.99C251.447 150.93 251.378 150.847 251.335 150.749L250.621 149.485L249.907 150.749C249.865 150.85 249.795 150.937 249.705 150.999C249.615 151.062 249.509 151.097 249.4 151.102Z" fill="black"/>
<path d="M276.456 170.125H286.973" stroke="white" stroke-width="3" stroke-linecap="round" stroke-linejoin="round"/>
<path d="M130.574 92.6822V162.54C130.574 164.563 131.377 166.503 132.808 167.934C134.239 169.365 136.179 170.168 138.202 170.168H266.471" stroke="white" stroke-width="3" stroke-linecap="round" stroke-linejoin="round"/>
<path d="M130.574 74.1578V84.6326" stroke="white" stroke-width="3" stroke-linecap="round" stroke-linejoin="round"/>
</svg>
